RobotoFlexCondensed-Regular.ufo
<glyph name="dollar" format="2">
  <advance width="1037"/>
  <unicode hex="0024"/>
  <outline>
    <contour>
      <point x="94.6" y="413.0" type="curve" smooth="yes"/>
      <point x="94.6" y="425.06666666666666" type="line"/>
      <point x="270.5333333333333" y="425.06666666666666" type="line"/>
      <point x="270.5333333333333" y="413.0" type="line" smooth="yes"/>
      <point x="271" y="231"/>
      <point x="365" y="154"/>
      <point x="528.0666666666667" y="153.66666666666666" type="curve" smooth="yes"/>
      <point x="694" y="154"/>
      <point x="780" y="243"/>
      <point x="779.7333333333333" y="393.8" type="curve" smooth="yes"/>
      <point x="780" y="512"/>
      <point x="729" y="592"/>
      <point x="479.8" y="667.8666666666667" type="curve" smooth="yes"/>
      <point x="255" y="737"/>
      <point x="109" y="862"/>
      <point x="108.73333333333333" y="1076.6" type="curve" smooth="yes"/>
      <point x="109" y="1307"/>
      <point x="278" y="1456"/>
      <point x="519.1333333333333" y="1455.8666666666666" type="curve" smooth="yes"/>
      <point x="772" y="1456"/>
      <point x="930" y="1290"/>
      <point x="929.8" y="1049.3333333333333" type="curve" smooth="yes"/>
      <point x="929.8" y="1037.2666666666667" type="line"/>
      <point x="753.8666666666667" y="1037.2666666666667" type="line"/>
      <point x="753.8666666666667" y="1049.3333333333333" type="line" smooth="yes"/>
      <point x="754" y="1207"/>
      <point x="675" y="1303"/>
      <point x="520.2" y="1302.6666666666667" type="curve" smooth="yes"/>
      <point x="364" y="1303"/>
      <point x="284" y="1230"/>
      <point x="283.73333333333335" y="1091.5333333333333" type="curve" smooth="yes"/>
      <point x="284" y="952"/>
      <point x="345" y="898"/>
      <point x="588.6" y="819.4666666666667" type="curve" smooth="yes"/>
      <point x="842" y="736"/>
      <point x="954" y="591"/>
      <point x="953.6666666666666" y="393.8" type="curve" smooth="yes"/>
      <point x="954" y="150"/>
      <point x="787" y="0"/>
      <point x="528.0666666666667" y="0.40000000000000036" type="curve" smooth="yes"/>
      <point x="265" y="0"/>
      <point x="95" y="143"/>
    </contour>
    <contour>
      <point x="457.3333333333333" y="-148.66666666666666" type="line"/>
      <point x="457.3333333333333" y="726.0" type="line"/>
      <point x="591.2" y="726.0" type="line"/>
      <point x="591.2" y="101.33333333333333" type="line"/>
      <point x="600.9333333333333" y="91.33333333333333" type="line"/>
      <point x="600.9333333333333" y="-148.66666666666666" type="line"/>
    </contour>
    <contour>
      <point x="467.06666666666666" y="726.0" type="line"/>
      <point x="467.06666666666666" y="1354.0" type="line"/>
      <point x="457.3333333333333" y="1364.0" type="line"/>
      <point x="457.3333333333333" y="1607.3333333333333" type="line"/>
      <point x="600.9333333333333" y="1607.3333333333333" type="line"/>
      <point x="600.9333333333333" y="726.0" type="line"/>
    </contour>
  </outline>
</glyph>
<glyph name="asterisk" format="2">
  <advance width="975"/>
  <unicode hex="002A"/>
  <outline>
    <contour>
      <point x="58.0" y="1096.4666666666667" type="line"/>
      <point x="113.8" y="1271.1333333333334" type="line"/>
      <point x="431.8" y="1131.2666666666667" type="line"/>
      <point x="397.0" y="1476.0" type="line"/>
      <point x="578.4666666666667" y="1476.0" type="line"/>
      <point x="544.7333333333333" y="1131.2666666666667" type="line"/>
      <point x="861.6666666666666" y="1271.1333333333334" type="line"/>
      <point x="917.4666666666667" y="1096.4666666666667" type="line"/>
      <point x="578.6" y="1023.4" type="line"/>
      <point x="810.6" y="765.9333333333334" type="line"/>
      <point x="663.0" y="658.2" type="line"/>
      <point x="487.73333333333335" y="957.4" type="line"/>
      <point x="312.4666666666667" y="658.2" type="line"/>
      <point x="165.93333333333334" y="765.9333333333334" type="line"/>
      <point x="396.8666666666667" y="1023.4" type="line"/>
    </contour>
  </outline>
</glyph>
<glyph name="plus" format="2">
  <advance width="1180"/>
  <unicode hex="002B"/>
  <outline>
    <contour>
      <point x="162.6" y="594.2" type="line"/>
      <point x="162.6" y="753.9333333333333" type="line"/>
      <point x="1017.1333333333333" y="753.9333333333333" type="line"/>
      <point x="1017.1333333333333" y="594.2" type="line"/>
    </contour>
    <contour>
      <point x="504.1333333333333" y="166.66666666666666" type="line"/>
      <point x="504.1333333333333" y="1181.3333333333333" type="line"/>
      <point x="675.6" y="1181.3333333333333" type="line"/>
      <point x="675.6" y="166.66666666666666" type="line"/>
    </contour>
  </outline>
</glyph>
<glyph name="comma" format="2">
  <advance width="574"/>
  <unicode hex="002C"/>
  <outline>
    <contour>
      <point x="114.26666666666667" y="-213.73333333333332" type="line"/>
      <point x="176" y="-131"/>
      <point x="210" y="-50"/>
      <point x="210.0" y="67.86666666666666" type="curve" smooth="yes"/>
      <point x="210.0" y="215.73333333333332" type="line"/>
      <point x="383.6" y="215.73333333333332" type="line"/>
      <point x="383.6" y="67.86666666666666" type="line" smooth="yes"/>
      <point x="384" y="-77"/>
      <point x="317" y="-198"/>
      <point x="215.0" y="-284.6" type="curve"/>
    </contour>
  </outline>
</glyph>
<glyph name="zero" format="2">
  <advance width="1030"/>
  <unicode hex="0030"/>
  <outline>
    <contour>
      <point x="118.53333333333333" y="401.3333333333333" type="curve" smooth="yes"/>
      <point x="118.53333333333333" y="1054.6666666666667" type="line" smooth="yes"/>
      <point x="119" y="1311"/>
      <point x="265" y="1486"/>
      <point x="515.0666666666667" y="1486.0" type="curve" smooth="yes"/>
      <point x="763" y="1486"/>
      <point x="912" y="1311"/>
      <point x="911.6" y="1054.6666666666667" type="curve" smooth="yes"/>
      <point x="911.6" y="401.3333333333333" type="line" smooth="yes"/>
      <point x="912" y="148"/>
      <point x="763" y="-30"/>
      <point x="515.0666666666667" y="-30.0" type="curve" smooth="yes"/>
      <point x="265" y="-30"/>
      <point x="119" y="148"/>
    </contour>
    <contour>
      <point x="304.0" y="391.3333333333333" type="line" smooth="yes"/>
      <point x="304" y="242"/>
      <point x="370" y="123"/>
      <point x="515.0666666666667" y="122.66666666666667" type="curve" smooth="yes"/>
      <point x="660" y="123"/>
      <point x="726" y="242"/>
      <point x="726.1333333333333" y="391.3333333333333" type="curve" smooth="yes"/>
      <point x="726.1333333333333" y="1064.6666666666667" type="line" smooth="yes"/>
      <point x="726" y="1217"/>
      <point x="660" y="1333"/>
      <point x="515.0666666666667" y="1333.3333333333333" type="curve" smooth="yes"/>
      <point x="370" y="1333"/>
      <point x="304" y="1217"/>
      <point x="304.0" y="1064.6666666666667" type="curve" smooth="yes"/>
    </contour>
  </outline>
</glyph>
<glyph name="four" format="2">
  <advance width="1030"/>
  <unicode hex="0034"/>
  <outline>
    <contour>
      <point x="613.0666666666666" y="0.0" type="line"/>
      <point x="613.0666666666666" y="398.0" type="line"/>
      <point x="613.0666666666666" y="447.8666666666667" type="line"/>
      <point x="613.0666666666666" y="1083.9333333333334" type="line"/>
      <point x="601.0666666666666" y="1083.9333333333334" type="line"/>
      <point x="253.0" y="495.73333333333335" type="line"/>
      <point x="679.0" y="495.73333333333335" type="line"/>
      <point x="742.1333333333333" y="495.73333333333335" type="line"/>
      <point x="961.8666666666667" y="495.73333333333335" type="line"/>
      <point x="961.8666666666667" y="344.1333333333333" type="line"/>
      <point x="56.4" y="344.1333333333333" type="line"/>
      <point x="56.4" y="465.8666666666667" type="line"/>
      <point x="643.4666666666667" y="1456.0" type="line"/>
      <point x="784.5333333333333" y="1456.0" type="line"/>
      <point x="784.5333333333333" y="0.0" type="line"/>
    </contour>
  </outline>
</glyph>
<glyph name="colon" format="2">
  <advance width="591"/>
  <unicode hex="003A"/>
  <outline>
    <contour>
      <point x="176.0" y="94.86666666666666" type="curve" smooth="yes"/>
      <point x="176" y="159"/>
      <point x="218" y="212"/>
      <point x="295.73333333333335" y="211.73333333333332" type="curve" smooth="yes"/>
      <point x="373" y="212"/>
      <point x="415" y="159"/>
      <point x="415.46666666666664" y="94.86666666666666" type="curve" smooth="yes"/>
      <point x="415" y="31"/>
      <point x="373" y="-22"/>
      <point x="295.73333333333335" y="-22.0" type="curve" smooth="yes"/>
      <point x="218" y="-22"/>
      <point x="176" y="31"/>
    </contour>
    <contour>
      <point x="176.0" y="951.1333333333333" type="curve" smooth="yes"/>
      <point x="176" y="1015"/>
      <point x="218" y="1068"/>
      <point x="295.73333333333335" y="1068.0" type="curve" smooth="yes"/>
      <point x="373" y="1068"/>
      <point x="415" y="1015"/>
      <point x="415.46666666666664" y="951.1333333333333" type="curve" smooth="yes"/>
      <point x="415" y="887"/>
      <point x="373" y="834"/>
      <point x="295.73333333333335" y="834.2666666666667" type="curve" smooth="yes"/>
      <point x="218" y="834"/>
      <point x="176" y="887"/>
    </contour>
  </outline>
</glyph>
<glyph name="greater" format="2">
  <advance width="1071"/>
  <unicode hex="003E"/>
  <outline>
    <contour>
      <point x="184.93333333333334" y="224.2" type="line"/>
      <point x="184.93333333333334" y="406.53333333333336" type="line"/>
      <point x="709.6" y="674.4666666666667" type="line"/>
      <point x="184.93333333333334" y="942.4" type="line"/>
      <point x="184.93333333333334" y="1124.0666666666666" type="line"/>
      <point x="894.1333333333333" y="744.0" type="line"/>
      <point x="894.1333333333333" y="604.2666666666667" type="line"/>
    </contour>
  </outline>
</glyph>
<glyph name="D" format="2">
  <advance width="1214"/>
  <unicode hex="0044"/>
  <outline>
    <contour>
      <point x="170.0" y="0.0" type="line"/>
      <point x="170.0" y="1456.0" type="line"/>
      <point x="529.4666666666667" y="1456.0" type="line" smooth="yes"/>
      <point x="856" y="1456"/>
      <point x="1098" y="1221"/>
      <point x="1098.2" y="774.0" type="curve" smooth="yes"/>
      <point x="1098.2" y="682.0" type="line" smooth="yes"/>
      <point x="1098" y="235"/>
      <point x="856" y="0"/>
      <point x="529.4666666666667" y="0.0" type="curve" smooth="yes"/>
    </contour>
    <contour>
      <point x="353.46666666666664" y="152.66666666666666" type="line"/>
      <point x="529.4666666666667" y="152.66666666666666" type="line" smooth="yes"/>
      <point x="765" y="153"/>
      <point x="913" y="321"/>
      <point x="912.7333333333333" y="682.0" type="curve" smooth="yes"/>
      <point x="912.7333333333333" y="774.0" type="line" smooth="yes"/>
      <point x="913" y="1135"/>
      <point x="765" y="1303"/>
      <point x="529.4666666666667" y="1303.3333333333333" type="curve" smooth="yes"/>
      <point x="353.46666666666664" y="1303.3333333333333" type="line"/>
    </contour>
  </outline>
</glyph>
<glyph name="N" format="2">
  <advance width="1280"/>
  <unicode hex="004E"/>
  <outline>
    <contour>
      <point x="170.0" y="0.0" type="line"/>
      <point x="170.0" y="1456.0" type="line"/>
      <point x="378.53333333333336" y="1456.0" type="line"/>
      <point x="871.1333333333333" y="431.73333333333335" type="line" smooth="yes"/>
      <point x="886" y="399"/>
      <point x="915" y="334"/>
      <point x="927.2571428571429" y="289.0" type="curve"/>
      <point x="935.6857142857143" y="289.0" type="line"/>
      <point x="931" y="336"/>
      <point x="931" y="407"/>
      <point x="931.3333333333334" y="449.6" type="curve" smooth="yes"/>
      <point x="931.3333333333334" y="1456.0" type="line"/>
      <point x="1109.7333333333333" y="1456.0" type="line"/>
      <point x="1109.7333333333333" y="0.0" type="line"/>
      <point x="901.2" y="0.0" type="line"/>
      <point x="403.26666666666665" y="1030.6666666666667" type="line" smooth="yes"/>
      <point x="384" y="1071"/>
      <point x="363" y="1114"/>
      <point x="349.5571428571429" y="1157.4" type="curve"/>
      <point x="340.84761904761905" y="1157.4" type="line"/>
      <point x="346" y="1111"/>
      <point x="346" y="1057"/>
      <point x="346.26666666666665" y="1010.6666666666666" type="curve" smooth="yes"/>
      <point x="346.26666666666665" y="0.0" type="line"/>
    </contour>
  </outline>
</glyph>
<glyph name="Z" format="2">
  <advance width="962"/>
  <unicode hex="005A"/>
  <outline>
    <contour>
      <point x="27.852380952380955" y="0.0" type="line"/>
      <point x="27.852380952380955" y="134.66666666666666" type="line"/>
      <point x="699.9857142857143" y="1303.3333333333333" type="line"/>
      <point x="39.852380952380955" y="1303.3333333333333" type="line"/>
      <point x="39.852380952380955" y="1456.0" type="line"/>
      <point x="902.3190476190476" y="1456.0" type="line"/>
      <point x="902.3190476190476" y="1321.3333333333333" type="line"/>
      <point x="230.18571428571428" y="152.66666666666666" type="line"/>
      <point x="934.3190476190476" y="152.66666666666666" type="line"/>
      <point x="934.3190476190476" y="0.0" type="line"/>
    </contour>
  </outline>
</glyph>
<glyph name="underscore" format="2">
  <advance width="794"/>
  <unicode hex="005F"/>
  <outline>
    <contour>
      <point x="0.0" y="-250.66666666666666" type="line"/>
      <point x="0.0" y="-90.4" type="line"/>
      <point x="793.6" y="-90.4" type="line"/>
      <point x="793.6" y="-250.66666666666666" type="line"/>
    </contour>
  </outline>
</glyph>
<glyph name="f" format="2">
  <advance width="510"/>
  <unicode hex="0066"/>
  <outline>
    <contour>
      <point x="159.73333333333335" y="0.0" type="line"/>
      <point x="159.73333333333335" y="1200.0" type="line" smooth="yes"/>
      <point x="160" y="1433"/>
      <point x="277" y="1556"/>
      <point x="471.06666666666666" y="1556.0" type="curve" smooth="yes"/>
      <point x="505" y="1556"/>
      <point x="546" y="1551"/>
      <point x="578.8" y="1540.0" type="curve"/>
      <point x="569.8666666666667" y="1394.2666666666667" type="line"/>
      <point x="546" y="1401"/>
      <point x="516" y="1405"/>
      <point x="485.73333333333335" y="1405.3333333333333" type="curve" smooth="yes"/>
      <point x="391" y="1405"/>
      <point x="337" y="1337"/>
      <point x="337.2" y="1200.0" type="curve" smooth="yes"/>
      <point x="337.2" y="1018.9904761904762" type="line"/>
      <point x="337.2" y="996.9904761904762" type="line"/>
      <point x="337.2" y="0.0" type="line"/>
    </contour>
    <contour>
      <point x="25.0" y="939.1238095238095" type="line"/>
      <point x="25.0" y="1076.857142857143" type="line"/>
      <point x="229.73333333333335" y="1076.857142857143" type="line"/>
      <point x="267.2" y="1076.857142857143" type="line"/>
      <point x="520.4" y="1076.857142857143" type="line"/>
      <point x="520.4" y="939.1238095238095" type="line"/>
    </contour>
  </outline>
</glyph>
<glyph name="j" format="2">
  <advance width="491"/>
  <unicode hex="006A"/>
  <outline>
    <contour>
      <point x="-47.06666666666667" y="-410.0" type="curve"/>
      <point x="-47.06666666666667" y="-265.3333333333333" type="line"/>
      <point x="-23" y="-273"/>
      <point x="22" y="-285"/>
      <point x="57.733333333333334" y="-285.3333333333333" type="curve" smooth="yes"/>
      <point x="121" y="-285"/>
      <point x="157" y="-241"/>
      <point x="157.0" y="-130.0" type="curve" smooth="yes"/>
      <point x="157.0" y="1076.857142857143" type="line"/>
      <point x="334.46666666666664" y="1076.857142857143" type="line"/>
      <point x="334.46666666666664" y="-90.0" type="line" smooth="yes"/>
      <point x="334" y="-331"/>
      <point x="251" y="-436"/>
      <point x="91.33333333333333" y="-436.0" type="curve" smooth="yes"/>
      <point x="46" y="-436"/>
      <point x="-18" y="-422"/>
    </contour>
    <contour>
      <point x="140.4" y="1376.4190476190477" type="curve" smooth="yes"/>
      <point x="140" y="1435"/>
      <point x="178" y="1480"/>
      <point x="245.73333333333332" y="1479.952380952381" type="curve" smooth="yes"/>
      <point x="314" y="1480"/>
      <point x="351" y="1435"/>
      <point x="351.06666666666666" y="1376.4190476190477" type="curve" smooth="yes"/>
      <point x="351" y="1318"/>
      <point x="314" y="1273"/>
      <point x="245.73333333333332" y="1272.8857142857144" type="curve" smooth="yes"/>
      <point x="178" y="1273"/>
      <point x="140" y="1318"/>
    </contour>
  </outline>
</glyph>
<glyph name="n" format="2">
  <advance width="1003"/>
  <unicode hex="006E"/>
  <outline>
    <contour>
      <point x="148.0" y="0.0" type="line"/>
      <point x="148.0" y="1076.857142857143" type="line"/>
      <point x="310.6666666666667" y="1076.857142857143" type="line"/>
      <point x="317.6" y="957.8571428571429" type="line"/>
      <point x="321.46666666666664" y="957.8571428571429" type="line"/>
      <point x="382" y="1046"/>
      <point x="473" y="1097"/>
      <point x="581.6" y="1096.857142857143" type="curve" smooth="yes"/>
      <point x="756" y="1097"/>
      <point x="865" y="994"/>
      <point x="864.5333333333333" y="724.1238095238095" type="curve" smooth="yes"/>
      <point x="864.5333333333333" y="0.0" type="line"/>
      <point x="687.0666666666666" y="0.0" type="line"/>
      <point x="687.0666666666666" y="736.7904761904762" type="line" smooth="yes"/>
      <point x="687" y="883"/>
      <point x="638" y="946"/>
      <point x="525.5333333333333" y="946.1904761904761" type="curve" smooth="yes"/>
      <point x="423" y="946"/>
      <point x="354" y="871"/>
      <point x="325.46666666666664" y="800.8571428571429" type="curve"/>
      <point x="325.46666666666664" y="0.0" type="line"/>
    </contour>
  </outline>
</glyph>
<glyph name="r" format="2">
  <advance width="619"/>
  <unicode hex="0072"/>
  <outline>
    <contour>
      <point x="148.0" y="0.0" type="line"/>
      <point x="148.0" y="1076.857142857143" type="line"/>
      <point x="310.6666666666667" y="1076.857142857143" type="line"/>
      <point x="317.6" y="963.1904761904761" type="line"/>
      <point x="321.46666666666664" y="963.1904761904761" type="line"/>
      <point x="364" y="1042"/>
      <point x="429" y="1107"/>
      <point x="519.6" y="1106.857142857143" type="curve" smooth="yes"/>
      <point x="546" y="1107"/>
      <point x="577" y="1098"/>
      <point x="588.9333333333334" y="1092.857142857143" type="curve"/>
      <point x="588.9333333333334" y="927.2571428571429" type="line"/>
      <point x="565" y="933"/>
      <point x="541" y="935"/>
      <point x="511.73333333333335" y="935.2571428571429" type="curve" smooth="yes"/>
      <point x="421" y="935"/>
      <point x="357" y="874"/>
      <point x="325.46666666666664" y="790.4571428571428" type="curve"/>
      <point x="325.46666666666664" y="0.0" type="line"/>
    </contour>
  </outline>
</glyph>
<glyph name="s" format="2">
  <advance width="876"/>
  <unicode hex="0073"/>
  <outline>
    <contour>
      <point x="80.0" y="314.2857142857143" type="line"/>
      <point x="257.46666666666664" y="314.2857142857143" type="line"/>
      <point x="257.46666666666664" y="309.2857142857143" type="line" smooth="yes"/>
      <point x="257" y="182"/>
      <point x="331" y="113"/>
      <point x="441.73333333333335" y="113.46666666666667" type="curve" smooth="yes"/>
      <point x="552" y="113"/>
      <point x="617" y="173"/>
      <point x="617.2904761904762" y="276.81904761904764" type="curve" smooth="yes"/>
      <point x="617" y="372"/>
      <point x="585" y="428"/>
      <point x="399.26666666666665" y="484.8952380952381" type="curve" smooth="yes"/>
      <point x="214" y="542"/>
      <point x="109" y="637"/>
      <point x="108.85238095238095" y="801.6380952380953" type="curve" smooth="yes"/>
      <point x="109" y="986"/>
      <point x="242" y="1107"/>
      <point x="444.54285714285714" y="1106.857142857143" type="curve" smooth="yes"/>
      <point x="654" y="1107"/>
      <point x="781" y="997"/>
      <point x="780.5428571428572" y="779.1666666666666" type="curve" smooth="yes"/>
      <point x="780.5428571428572" y="774.1666666666666" type="line"/>
      <point x="604.0761904761905" y="774.1666666666666" type="line"/>
      <point x="604.0761904761905" y="799.3761904761905" type="line" smooth="yes"/>
      <point x="604" y="914"/>
      <point x="553" y="963"/>
      <point x="444.54285714285714" y="963.3904761904762" type="curve" smooth="yes"/>
      <point x="337" y="963"/>
      <point x="285" y="909"/>
      <point x="285.3857142857143" y="815.9047619047619" type="curve" smooth="yes"/>
      <point x="285" y="729"/>
      <point x="321" y="685"/>
      <point x="507.8" y="624.9619047619047" type="curve" smooth="yes"/>
      <point x="693" y="566"/>
      <point x="796" y="478"/>
      <point x="795.6" y="293.2190476190476" type="curve" smooth="yes"/>
      <point x="796" y="96"/>
      <point x="679" y="-30"/>
      <point x="441.73333333333335" y="-30.0" type="curve" smooth="yes"/>
      <point x="195" y="-30"/>
      <point x="80" y="93"/>
      <point x="80.0" y="309.2857142857143" type="curve" smooth="yes"/>
    </contour>
  </outline>
</glyph>
<glyph name="ordfeminine" format="2">
  <advance width="798"/>
  <unicode hex="00AA"/>
  <guideline x="0" y="1681.0" angle="0" identifier="3CJlALCfkl"/>
  <guideline x="0" y="909.0" angle="0" identifier="Zdl6NZVQAy"/>
  <outline>
    <contour>
      <point x="498.26666666666665" y="862.0" type="line"/>
      <point x="498" y="807"/>
      <point x="510" y="746"/>
      <point x="541.2666666666667" y="706.0" type="curve"/>
      <point x="676.2666666666667" y="706.0" type="line"/>
      <point x="658" y="764"/>
      <point x="650" y="821"/>
      <point x="650.2666666666667" y="887.0" type="curve" smooth="yes"/>
      <point x="650.2666666666667" y="1201.0" type="line" smooth="yes"/>
      <point x="650" y="1379"/>
      <point x="561" y="1477"/>
      <point x="398.93333333333334" y="1477.0" type="curve" smooth="yes"/>
      <point x="232" y="1477"/>
      <point x="143" y="1401"/>
      <point x="142.6" y="1261.0" type="curve" smooth="yes"/>
      <point x="142.6" y="1234.0" type="line"/>
      <point x="297.6" y="1234.0" type="line"/>
      <point x="297.6" y="1247.0" type="line" smooth="yes"/>
      <point x="298" y="1312"/>
      <point x="334" y="1346"/>
      <point x="400.93333333333334" y="1346.0" type="curve" smooth="yes"/>
      <point x="464" y="1346"/>
      <point x="498" y="1294"/>
      <point x="498.26666666666665" y="1202.0" type="curve" smooth="yes"/>
    </contour>
    <contour>
      <point x="527.2666666666667" y="1149.0" type="line"/>
      <point x="411.93333333333334" y="1149.0" type="line" smooth="yes"/>
      <point x="223" y="1149"/>
      <point x="119" y="1067"/>
      <point x="118.6" y="918.0" type="curve" smooth="yes"/>
      <point x="119" y="771"/>
      <point x="191" y="692"/>
      <point x="321.93333333333334" y="692.0" type="curve" smooth="yes"/>
      <point x="457" y="692"/>
      <point x="524" y="771"/>
      <point x="533.2666666666667" y="837.0" type="curve"/>
      <point x="515.2666666666667" y="949.0" type="line"/>
      <point x="515" y="898"/>
      <point x="447" y="822"/>
      <point x="360.93333333333334" y="822.0" type="curve" smooth="yes"/>
      <point x="307" y="822"/>
      <point x="276" y="857"/>
      <point x="275.6" y="922.0" type="curve" smooth="yes"/>
      <point x="276" y="1001"/>
      <point x="325" y="1042"/>
      <point x="412.93333333333334" y="1042.0" type="curve" smooth="yes"/>
      <point x="527.2666666666667" y="1042.0" type="line"/>
    </contour>
  </outline>
</glyph>
<glyph name="logicalnot" format="2">
  <advance width="943"/>
  <unicode hex="00AC"/>
  <outline>
    <contour>
      <point x="821.3333333333334" y="801.0" type="line"/>
      <point x="821.3333333333334" y="376.0" type="line"/>
      <point x="642.7333333333333" y="376.0" type="line"/>
      <point x="642.7333333333333" y="643.4" type="line"/>
      <point x="58.0" y="643.4" type="line"/>
      <point x="58.0" y="801.0" type="line"/>
    </contour>
  </outline>
</glyph>
<glyph name="threesuperior" format="2">
  <advance width="658"/>
  <unicode hex="00B3"/>
  <outline>
    <contour>
      <point x="59.8" y="914.6666666666666" type="curve"/>
      <point x="216.8" y="914.6666666666666" type="line"/>
      <point x="217" y="853"/>
      <point x="257" y="819"/>
      <point x="330.8" y="818.6666666666666" type="curve" smooth="yes"/>
      <point x="399" y="819"/>
      <point x="437" y="856"/>
      <point x="437.1333333333333" y="925.0" type="curve" smooth="yes"/>
      <point x="437" y="996"/>
      <point x="413" y="1036"/>
      <point x="314.8" y="1034.3333333333333" type="curve" smooth="yes"/>
      <point x="262.8" y="1034.3333333333333" type="line"/>
      <point x="262.8" y="1145.6666666666667" type="line"/>
      <point x="314.8" y="1145.6666666666667" type="line" smooth="yes"/>
      <point x="411" y="1146"/>
      <point x="424" y="1191"/>
      <point x="424.1333333333333" y="1255.0" type="curve" smooth="yes"/>
      <point x="424" y="1320"/>
      <point x="389" y="1354"/>
      <point x="327.8" y="1354.3333333333333" type="curve" smooth="yes"/>
      <point x="263" y="1354"/>
      <point x="228" y="1322"/>
      <point x="227.8" y="1261.3333333333333" type="curve"/>
      <point x="70.8" y="1261.3333333333333" type="line"/>
      <point x="71" y="1408"/>
      <point x="160" y="1487"/>
      <point x="324.8" y="1487.0" type="curve" smooth="yes"/>
      <point x="496" y="1487"/>
      <point x="589" y="1408"/>
      <point x="588.8" y="1263.0" type="curve" smooth="yes"/>
      <point x="589" y="1195"/>
      <point x="546" y="1127"/>
      <point x="465.8" y="1098.0" type="curve"/>
      <point x="557" y="1067"/>
      <point x="600" y="1005"/>
      <point x="599.8" y="917.0" type="curve" smooth="yes"/>
      <point x="600" y="768"/>
      <point x="504" y="686"/>
      <point x="325.8" y="686.0" type="curve" smooth="yes"/>
      <point x="153" y="686"/>
      <point x="60" y="768"/>
    </contour>
  </outline>
</glyph>
<glyph name="micro" format="2">
  <advance width="1064"/>
  <unicode hex="00B5"/>
  <outline>
    <contour>
      <point x="239.86666666666667" y="1052.0" type="line"/>
      <point x="417.3333333333333" y="1052.0" type="line"/>
      <point x="285.3333333333333" y="371.0" type="line" smooth="yes"/>
      <point x="252" y="205"/>
      <point x="283" y="136"/>
      <point x="392.3333333333333" y="136.0" type="curve" smooth="yes"/>
      <point x="479" y="136"/>
      <point x="550" y="185"/>
      <point x="634.9333333333334" y="308.0" type="curve"/>
      <point x="778.9333333333334" y="1052.0" type="line"/>
      <point x="964.9333333333334" y="1052.0" type="line"/>
      <point x="760.9333333333334" y="0.0" type="line"/>
      <point x="592.9333333333334" y="0.0" type="line"/>
      <point x="610.9333333333334" y="135.0" type="line"/>
      <point x="604.9333333333334" y="135.0" type="line"/>
      <point x="524" y="39"/>
      <point x="432" y="-20"/>
      <point x="335.06666666666666" y="-20.0" type="curve" smooth="yes"/>
      <point x="263" y="-20"/>
      <point x="229" y="10"/>
      <point x="221.33333333333334" y="42.0" type="curve"/>
      <point x="133.33333333333334" y="-416.0" type="line"/>
      <point x="-44.13333333333333" y="-416.0" type="line"/>
    </contour>
  </outline>
</glyph>
<glyph name="ordmasculine" format="2">
  <advance width="859"/>
  <unicode hex="00BA"/>
  <guideline x="0" y="1975.0" angle="0" identifier="Jnt0R9CyOf"/>
  <outline>
    <contour>
      <point x="119.8" y="1043.0" type="curve"/>
      <point x="119.8" y="1124.0" type="line"/>
      <point x="120" y="1353"/>
      <point x="229" y="1477"/>
      <point x="429.8" y="1477.0" type="curve" smooth="yes"/>
      <point x="630" y="1477"/>
      <point x="740" y="1353"/>
      <point x="739.8" y="1124.0" type="curve"/>
      <point x="739.8" y="1043.0" type="line"/>
      <point x="740" y="814"/>
      <point x="631" y="691"/>
      <point x="431.8" y="691.0" type="curve" smooth="yes"/>
      <point x="230" y="691"/>
      <point x="120" y="814"/>
    </contour>
    <contour>
      <point x="282.8" y="1124.0" type="curve"/>
      <point x="282.8" y="1043.0" type="line"/>
      <point x="283" y="904"/>
      <point x="336" y="830"/>
      <point x="431.8" y="830.0" type="curve" smooth="yes"/>
      <point x="525" y="830"/>
      <point x="578" y="904"/>
      <point x="577.8" y="1043.0" type="curve"/>
      <point x="577.8" y="1124.0" type="line"/>
      <point x="578" y="1262"/>
      <point x="525" y="1336"/>
      <point x="429.8" y="1336.0" type="curve" smooth="yes"/>
      <point x="335" y="1336"/>
      <point x="283" y="1262"/>
    </contour>
  </outline>
</glyph>
<glyph name="multiply" format="2">
  <advance width="901"/>
  <unicode hex="00D7"/>
  <outline>
    <contour>
      <point x="187.86666666666667" y="237.0" type="line"/>
      <point x="79.86666666666666" y="349.0" type="line"/>
      <point x="711.2" y="1104.0" type="line"/>
      <point x="819.2" y="991.0" type="line"/>
    </contour>
    <contour>
      <point x="703.2" y="237.0" type="line"/>
      <point x="82.86666666666666" y="980.0" type="line"/>
      <point x="201.86666666666667" y="1104.0" type="line"/>
      <point x="822.2" y="360.0" type="line"/>
    </contour>
  </outline>
</glyph>
<glyph name="eth" format="2">
  <advance width="1007"/>
  <unicode hex="00F0"/>
  <outline>
    <contour>
      <point x="217.2" y="1429.5333333333333" type="curve"/>
      <point x="271.0" y="1581.0" type="line"/>
      <point x="693.9933333333333" y="1486.2173333333333"/>
      <point x="922.3333333333334" y="1151.2226666666666"/>
      <point x="922.3333333333334" y="633.0" type="curve"/>
      <point x="922.3333333333334" y="535.0" type="line"/>
      <point x="922.3333333333334" y="205.35999999999996"/>
      <point x="778.3466666666666" y="-20.0"/>
      <point x="507.6666666666667" y="-20.0" type="curve" smooth="yes"/>
      <point x="226.26666666666665" y="-20.0"/>
      <point x="85.0" y="195.97999999999996"/>
      <point x="85.0" y="468.0" type="curve" smooth="yes"/>
      <point x="85.0" y="776.2"/>
      <point x="221.04666666666668" y="978.0"/>
      <point x="479.6666666666667" y="978.0" type="curve" smooth="yes"/>
      <point x="706.1266666666667" y="978.0"/>
      <point x="826.3333333333334" y="793.9"/>
      <point x="826.3333333333334" y="613.0" type="curve"/>
      <point x="757.3333333333334" y="614.0" type="line"/>
      <point x="757.3333333333334" y="742.4613333333334"/>
      <point x="658.1133333333333" y="830.2666666666667"/>
      <point x="523.6666666666666" y="830.2666666666667" type="curve" smooth="yes"/>
      <point x="328.0266666666667" y="830.2666666666667"/>
      <point x="265.6666666666667" y="687.76"/>
      <point x="265.6666666666667" y="468.0" type="curve" smooth="yes"/>
      <point x="265.6666666666667" y="303.17999999999995"/>
      <point x="322.7266666666667" y="117.06666666666666"/>
      <point x="511.6666666666667" y="117.06666666666666" type="curve" smooth="yes"/>
      <point x="683.1866666666666" y="117.06666666666666"/>
      <point x="741.6666666666666" y="304.52"/>
      <point x="741.6666666666666" y="535.0" type="curve" smooth="yes"/>
      <point x="741.6666666666666" y="635.0" type="line" smooth="yes"/>
      <point x="741.6666666666666" y="1096.9426666666668"/>
      <point x="560.4186666666667" y="1339.664"/>
    </contour>
    <contour>
      <point x="830.3333333333334" y="1427.0" type="line"/>
      <point x="400.0" y="1061.0" type="line"/>
      <point x="317.0" y="1181.0" type="line"/>
      <point x="747.3333333333334" y="1546.0" type="line"/>
    </contour>
  </outline>
</glyph>
<glyph name="dieresistonos" format="2">
  <advance width="1114"/>
  <unicode hex="0385"/>
  <outline>
    <contour>
      <point x="296.0" y="1247.0" type="curve" smooth="yes"/>
      <point x="224.98" y="1247.0"/>
      <point x="187.0" y="1293.38"/>
      <point x="187.0" y="1351.0" type="curve" smooth="yes"/>
      <point x="187.0" y="1411.3"/>
      <point x="224.98" y="1458.0"/>
      <point x="296.0" y="1458.0" type="curve" smooth="yes"/>
      <point x="368.36" y="1458.0"/>
      <point x="406.0" y="1411.3"/>
      <point x="406.0" y="1351.0" type="curve" smooth="yes"/>
      <point x="406.0" y="1293.38"/>
      <point x="368.36" y="1247.0"/>
    </contour>
    <contour>
      <point x="589.0" y="1218.0" type="line"/>
      <point x="473.0" y="1226.0" type="line"/>
      <point x="497.0" y="1613.0" type="line"/>
      <point x="683.0" y="1613.0" type="line"/>
    </contour>
    <contour>
      <point x="817.0" y="1245.0" type="curve" smooth="yes"/>
      <point x="744.64" y="1245.0"/>
      <point x="708.0" y="1291.38"/>
      <point x="708.0" y="1349.0" type="curve" smooth="yes"/>
      <point x="708.0" y="1409.3"/>
      <point x="744.64" y="1456.0"/>
      <point x="817.0" y="1456.0" type="curve" smooth="yes"/>
      <point x="888.02" y="1456.0"/>
      <point x="927.0" y="1409.3"/>
      <point x="927.0" y="1349.0" type="curve" smooth="yes"/>
      <point x="927.0" y="1291.38"/>
      <point x="888.02" y="1245.0"/>
    </contour>
  </outline>
</glyph>
<glyph name="Psi" format="2">
  <advance width="1509"/>
  <unicode hex="03A8"/>
  <outline>
    <contour>
      <point x="662.1333333333333" y="0.0" type="line"/>
      <point x="662.1333333333333" y="1456.0" type="line"/>
      <point x="845.0" y="1456.0" type="line"/>
      <point x="845.0" y="0.0" type="line"/>
    </contour>
    <contour>
      <point x="722.3333333333334" y="361.0" type="line"/>
      <point x="695.0" y="361.0" type="line" smooth="yes"/>
      <point x="326.9466666666666" y="361.0"/>
      <point x="155.0" y="535.38"/>
      <point x="155.0" y="928.0" type="curve" smooth="yes"/>
      <point x="155.0" y="1456.0" type="line"/>
      <point x="337.4" y="1456.0" type="line"/>
      <point x="337.4" y="926.0" type="line" smooth="yes"/>
      <point x="337.4" y="579.2973333333333"/>
      <point x="494.3933333333333" y="520.0666666666667"/>
      <point x="705.6666666666666" y="520.0666666666667" type="curve" smooth="yes"/>
      <point x="722.3333333333334" y="520.0666666666667" type="line"/>
    </contour>
    <contour>
      <point x="785.8666666666667" y="361.0" type="line"/>
      <point x="785.8666666666667" y="520.0666666666667" type="line"/>
      <point x="802.3333333333334" y="520.0666666666667" type="line" smooth="yes"/>
      <point x="1015.1253333333333" y="520.0666666666667"/>
      <point x="1170.8" y="579.2973333333333"/>
      <point x="1170.8" y="926.0" type="curve" smooth="yes"/>
      <point x="1170.8" y="1456.0" type="line"/>
      <point x="1353.2" y="1456.0" type="line"/>
      <point x="1353.2" y="928.0" type="line" smooth="yes"/>
      <point x="1353.2" y="535.38"/>
      <point x="1181.2533333333336" y="361.0"/>
      <point x="813.2" y="361.0" type="curve" smooth="yes"/>
    </contour>
  </outline>
</glyph>
<glyph name="beta" format="2">
  <advance width="1021"/>
  <unicode hex="03B2"/>
  <outline>
    <contour>
      <point x="148.0" y="-416.0" type="line"/>
      <point x="148.0" y="1058.0" type="line" smooth="yes"/>
      <point x="148.0" y="1397.02"/>
      <point x="297.55199999999996" y="1556.0"/>
      <point x="517.1333333333333" y="1556.0" type="curve" smooth="yes"/>
      <point x="732.6946666666666" y="1556.0"/>
      <point x="863.4" y="1417.4542857142858"/>
      <point x="863.4" y="1163.4285714285713" type="curve" smooth="yes"/>
      <point x="863.4" y="1027.7057142857143"/>
      <point x="807.1079047619048" y="885.7142857142857"/>
      <point x="653.3333333333334" y="828.2857142857143" type="curve"/>
      <point x="653.3333333333334" y="854.2857142857143" type="line"/>
      <point x="839.0062857142856" y="817.5314285714286"/>
      <point x="936.4666666666667" y="676.9"/>
      <point x="936.4666666666667" y="467.2857142857143" type="curve" smooth="yes"/>
      <point x="936.4666666666667" y="172.46019047619046"/>
      <point x="798.46" y="-19.933333333333334"/>
      <point x="580.9333333333334" y="-19.933333333333334" type="curve" smooth="yes"/>
      <point x="460.6013333333333" y="-19.933333333333334"/>
      <point x="381.38933333333335" y="16.38133333333333"/>
      <point x="325.46666666666664" y="100.53333333333333" type="curve"/>
      <point x="325.46666666666664" y="-416.0" type="line"/>
    </contour>
    <contour>
      <point x="531.1333333333333" y="127.73333333333333" type="curve" smooth="yes"/>
      <point x="657.1826666666667" y="127.73333333333333"/>
      <point x="754.9333333333334" y="221.3285714285714"/>
      <point x="754.9333333333334" y="452.0" type="curve" smooth="yes"/>
      <point x="754.9333333333334" y="648.98"/>
      <point x="700.6606666666668" y="745.360380952381"/>
      <point x="496.4" y="748.2190476190476" type="curve" smooth="yes"/>
      <point x="420.4" y="748.2190476190476" type="line"/>
      <point x="420.4" y="905.952380952381" type="line"/>
      <point x="497.4" y="905.952380952381" type="line" smooth="yes"/>
      <point x="652.3231428571429" y="905.952380952381"/>
      <point x="686.8" y="1021.7285714285713"/>
      <point x="686.8" y="1162.4285714285713" type="curve" smooth="yes"/>
      <point x="686.8" y="1329.2777142857142"/>
      <point x="627.6546666666666" y="1408.2666666666667"/>
      <point x="513.9333333333334" y="1408.2666666666667" type="curve" smooth="yes"/>
      <point x="391.4573333333333" y="1408.2666666666667"/>
      <point x="325.46666666666664" y="1324.7106666666668"/>
      <point x="325.46666666666664" y="1097.0" type="curve" smooth="yes"/>
      <point x="325.46666666666664" y="273.6666666666667" type="line"/>
      <point x="368.97200000000004" y="176.82933333333332"/>
      <point x="449.304" y="127.73333333333333"/>
    </contour>
  </outline>
</glyph>
<glyph name="theta" format="2">
  <advance width="987"/>
  <unicode hex="03B8"/>
  <outline>
    <contour>
      <point x="495.1333333333333" y="-30.0" type="curve" smooth="yes"/>
      <point x="254.55866666666668" y="-30.0"/>
      <point x="95.0" y="136.86666666666667"/>
      <point x="95.0" y="632.6666666666666" type="curve"/>
      <point x="95.0" y="903.3333333333334" type="line"/>
      <point x="95.0" y="1385.7333333333331"/>
      <point x="253.988" y="1556.0"/>
      <point x="493.1333333333333" y="1556.0" type="curve" smooth="yes"/>
      <point x="736.3879999999999" y="1556.0"/>
      <point x="893.3333333333334" y="1385.7333333333331"/>
      <point x="893.3333333333334" y="903.3333333333334" type="curve"/>
      <point x="893.3333333333334" y="632.6666666666666" type="line"/>
      <point x="893.3333333333334" y="136.86666666666667"/>
      <point x="738.3879999999999" y="-30.0"/>
    </contour>
    <contour>
      <point x="495.1333333333333" y="117.73333333333333" type="curve" smooth="yes"/>
      <point x="628.8653333333334" y="117.73333333333333"/>
      <point x="711.9333333333334" y="223.368"/>
      <point x="711.9333333333334" y="591.6" type="curve"/>
      <point x="711.9333333333334" y="938.4" type="line" smooth="yes"/>
      <point x="712.7373333333333" y="1308.0613333333333"/>
      <point x="641" y="1405"/>
      <point x="493" y="1405" type="curve" smooth="yes"/>
      <point x="349" y="1405"/>
      <point x="275.4" y="1308.0613333333333"/>
      <point x="275.4" y="938.4" type="curve" smooth="yes"/>
      <point x="275.4" y="591.6" type="line" smooth="yes"/>
      <point x="275.4" y="223.368"/>
      <point x="365.42133333333334" y="117.73333333333333"/>
    </contour>
    <contour>
      <point x="168.0" y="701.847619047619" type="line"/>
      <point x="168.0" y="854.5809523809523" type="line"/>
      <point x="778.8666666666667" y="854.5809523809523" type="line"/>
      <point x="778.8666666666667" y="701.847619047619" type="line"/>
    </contour>
  </outline>
</glyph>
<glyph name="lambda" format="2">
  <advance width="818"/>
  <unicode hex="03BB"/>
  <outline>
    <contour>
      <point x="0.0" y="0.0" type="line"/>
      <point x="347.1047619047619" y="1070.9285714285713" type="line"/>
      <point x="327.87619047619046" y="1132.9285714285713" type="line" smooth="yes"/>
      <point x="265.90438095238096" y="1336.8957142857143"/>
      <point x="213.08809523809526" y="1396.0"/>
      <point x="114.02380952380952" y="1396.0" type="curve"/>
      <point x="79.47095238095238" y="1396.0"/>
      <point x="56.097428571428566" y="1388.72"/>
      <point x="27.26190476190476" y="1378.0" type="curve"/>
      <point x="27.26190476190476" y="1536.0" type="line"/>
      <point x="58.77742857142857" y="1549.4"/>
      <point x="88.75" y="1556.0"/>
      <point x="142.5095238095238" y="1556.0" type="curve" smooth="yes"/>
      <point x="313.8061904761905" y="1556.0"/>
      <point x="394.9978095238095" y="1444.7813333333331"/>
      <point x="453.1857142857143" y="1252.0" type="curve" smooth="yes"/>
      <point x="829.1571428571428" y="0.0" type="line"/>
      <point x="647.4238095238095" y="0.0" type="line"/>
      <point x="466.8619047619048" y="672.8761904761905" type="line" smooth="yes"/>
      <point x="457.3223809523809" y="714.6331428571428"/>
      <point x="432.27866666666665" y="811.062380952381"/>
      <point x="428.9095238095238" y="849.5714285714286" type="curve"/>
      <point x="423.9761904761905" y="849.5714285714286" type="line"/>
      <point x="416.24247619047617" y="808.2292380952381"/>
      <point x="402.336380952381" y="739.1615238095238"/>
      <point x="382.9" y="672.8761904761905" type="curve" smooth="yes"/>
      <point x="176.8" y="0.0" type="line"/>
    </contour>
  </outline>
</glyph>
<glyph name="mu" format="2">
  <advance width="1052"/>
  <unicode hex="03BC"/>
  <outline>
    <contour>
      <point x="148.0" y="-416.0" type="line"/>
      <point x="148.0" y="1076.857142857143" type="line"/>
      <point x="325.46666666666664" y="1076.857142857143" type="line"/>
      <point x="325.46666666666664" y="247.46666666666667" type="line"/>
      <point x="356.5546666666667" y="160.0093333333333"/>
      <point x="428.53866666666664" y="129.86666666666667"/>
      <point x="498.93333333333334" y="129.86666666666667" type="curve" smooth="yes"/>
      <point x="626.5013333333334" y="129.86666666666667"/>
      <point x="687.0666666666666" y="197.05733333333333"/>
      <point x="687.0666666666666" y="346.3333333333333" type="curve" smooth="yes"/>
      <point x="687.0666666666666" y="1077.857142857143" type="line"/>
      <point x="864.5333333333333" y="1077.857142857143" type="line"/>
      <point x="864.5333333333333" y="240.66666666666666" type="line" smooth="yes"/>
      <point x="864.5333333333333" y="143.02533333333335"/>
      <point x="891.7559999999999" y="131.06666666666666"/>
      <point x="936.3333333333334" y="131.06666666666666" type="curve" smooth="yes"/>
      <point x="960.2746666666667" y="131.06666666666666"/>
      <point x="983.3746666666666" y="136.75333333333333"/>
      <point x="1001.8666666666667" y="146.13333333333333" type="curve"/>
      <point x="1001.8666666666667" y="1.5999999999999996" type="line"/>
      <point x="980.6946666666665" y="-10.46"/>
      <point x="926.0373333333333" y="-19.333333333333336"/>
      <point x="882.8" y="-19.333333333333336" type="curve" smooth="yes"/>
      <point x="792.6626666666666" y="-19.333333333333336"/>
      <point x="730.2173333333333" y="10.885333333333335"/>
      <point x="704.4" y="114.33333333333333" type="curve"/>
      <point x="700.5333333333333" y="114.33333333333333" type="line"/>
      <point x="663.728" y="46.976"/>
      <point x="592.784" y="-21.066666666666666"/>
      <point x="497.73333333333335" y="-21.066666666666666" type="curve" smooth="yes"/>
      <point x="421.8893333333333" y="-21.066666666666666"/>
      <point x="365.22" y="13.364000000000004"/>
      <point x="325.46666666666664" y="69.73333333333333" type="curve"/>
      <point x="325.46666666666664" y="-416.0" type="line"/>
    </contour>
  </outline>
</glyph>
<glyph name="pi" format="2">
  <advance width="1006"/>
  <unicode hex="03C0"/>
  <outline>
    <contour>
      <point x="32.0" y="919.1238095238095" type="line"/>
      <point x="32.0" y="1076.857142857143" type="line"/>
      <point x="986.2" y="1076.857142857143" type="line"/>
      <point x="986.2" y="919.1238095238095" type="line"/>
    </contour>
    <contour>
      <point x="162.8" y="0.0" type="line"/>
      <point x="162.8" y="997.9904761904762" type="line"/>
      <point x="340.26666666666665" y="997.9904761904762" type="line"/>
      <point x="340.26666666666665" y="0.0" type="line"/>
    </contour>
    <contour>
      <point x="892.7333333333333" y="-19.333333333333336" type="curve" smooth="yes"/>
      <point x="741.492" y="-19.333333333333336"/>
      <point x="684.4" y="36.337333333333305"/>
      <point x="684.4" y="218.66666666666666" type="curve"/>
      <point x="684.4" y="997.9904761904762" type="line"/>
      <point x="861.8666666666667" y="997.9904761904762" type="line"/>
      <point x="861.8666666666667" y="236.33333333333334" type="line" smooth="yes"/>
      <point x="861.8666666666667" y="142.26533333333333"/>
      <point x="891.4639999999999" y="131.06666666666666"/>
      <point x="932.2" y="131.06666666666666" type="curve" smooth="yes"/>
      <point x="960.9653333333333" y="131.06666666666666"/>
      <point x="987.3186666666667" y="139.43333333333334"/>
      <point x="999.2" y="146.13333333333333" type="curve"/>
      <point x="999.2" y="1.5999999999999996" type="line"/>
      <point x="976.5093333333333" y="-10.46"/>
      <point x="926.5013333333334" y="-19.333333333333336"/>
    </contour>
  </outline>
</glyph>
<glyph name="rho" format="2">
  <advance width="1001"/>
  <unicode hex="03C1"/>
  <outline>
    <contour>
      <point x="126.66666666666667" y="-416.0" type="line"/>
      <point x="126.66666666666667" y="568.0" type="line" smooth="yes"/>
      <point x="126.66666666666667" y="898.98"/>
      <point x="274.6626666666666" y="1099.0"/>
      <point x="521.1333333333333" y="1099.0" type="curve" smooth="yes"/>
      <point x="786.9893333333333" y="1099.0"/>
      <point x="916.4666666666667" y="878.669142857143"/>
      <point x="916.4666666666667" y="566.1428571428571" type="curve" smooth="yes"/>
      <point x="916.4666666666667" y="518.9904761904762" type="line" smooth="yes"/>
      <point x="916.4666666666667" y="203.6055238095238"/>
      <point x="775.8693333333334" y="-20.0"/>
      <point x="556.4666666666667" y="-20.0" type="curve"/>
      <point x="439.0826666666667" y="-20.0"/>
      <point x="355.76800000000003" y="20.58"/>
      <point x="304.1333333333333" y="100.53333333333333" type="curve"/>
      <point x="304.1333333333333" y="-416.0" type="line"/>
    </contour>
    <contour>
      <point x="513.2666666666667" y="127.73333333333333" type="curve" smooth="yes"/>
      <point x="658.5226666666666" y="127.73333333333333"/>
      <point x="735.0" y="256.0615238095238"/>
      <point x="735.0" y="497.65714285714284" type="curve" smooth="yes"/>
      <point x="735.0" y="576.8095238095239" type="line" smooth="yes"/>
      <point x="735.0" y="825.5518095238095"/>
      <point x="660.7891428571429" y="951.2666666666667"/>
      <point x="512.3809523809524" y="951.2666666666667" type="curve" smooth="yes"/>
      <point x="377.6024761904762" y="951.2666666666667"/>
      <point x="304.1333333333333" y="846.36"/>
      <point x="304.1333333333333" y="573.0" type="curve"/>
      <point x="304.1333333333333" y="273.6" type="line"/>
      <point x="334.2386666666667" y="206.95733333333334"/>
      <point x="399.27733333333333" y="127.73333333333333"/>
    </contour>
  </outline>
</glyph>
<glyph name="upsilon" format="2">
  <advance width="983"/>
  <unicode hex="03C5"/>
  <anchor x="491.8" y="1076.857142857143" name="GRK_top"/>
  <outline>
    <contour>
      <point x="490.73333333333335" y="-20.0" type="curve" smooth="yes"/>
      <point x="236.57999999999998" y="-20.0"/>
      <point x="138.0" y="110.98666666666662"/>
      <point x="138.0" y="381.6666666666667" type="curve" smooth="yes"/>
      <point x="138.0" y="1076.857142857143" type="line"/>
      <point x="315.46666666666664" y="1076.857142857143" type="line"/>
      <point x="315.46666666666664" y="376.4666666666667" type="line" smooth="yes"/>
      <point x="315.46666666666664" y="204.768"/>
      <point x="367.4533333333334" y="130.66666666666666"/>
      <point x="490.73333333333335" y="130.66666666666666" type="curve" smooth="yes"/>
      <point x="615.4426666666666" y="130.66666666666666"/>
      <point x="667.0666666666666" y="204.768"/>
      <point x="667.0666666666666" y="376.4666666666667" type="curve" smooth="yes"/>
      <point x="667.0666666666666" y="1076.857142857143" type="line"/>
      <point x="844.5333333333333" y="1076.857142857143" type="line"/>
      <point x="844.5333333333333" y="381.6666666666667" type="line" smooth="yes"/>
      <point x="844.5333333333333" y="110.98666666666662"/>
      <point x="746.316" y="-20.0"/>
    </contour>
  </outline>
</glyph>
<glyph name="Ghe" format="2">
  <advance width="976"/>
  <unicode hex="0413"/>
  <outline>
    <contour>
      <point x="170.0" y="0.0" type="line"/>
      <point x="170.0" y="1456.0" type="line"/>
      <point x="934.6666666666666" y="1456.0" type="line"/>
      <point x="934.6666666666666" y="1303.3333333333333" type="line"/>
      <point x="353.46666666666664" y="1303.3333333333333" type="line"/>
      <point x="353.46666666666664" y="0.0" type="line"/>
    </contour>
  </outline>
</glyph>
<glyph name="Shcha" format="2">
  <advance width="1905"/>
  <unicode hex="0429"/>
  <outline>
    <contour>
      <point x="170.0" y="1456.0" type="line"/>
      <point x="353.46666666666664" y="1456.0" type="line"/>
      <point x="353.46666666666664" y="153.73333333333332" type="line"/>
      <point x="856.8" y="153.73333333333332" type="line"/>
      <point x="856.8" y="1456.0" type="line"/>
      <point x="1040.2666666666667" y="1456.0" type="line"/>
      <point x="1040.2666666666667" y="153.73333333333332" type="line"/>
      <point x="1543.6" y="153.73333333333332" type="line"/>
      <point x="1543.6" y="1456.0" type="line"/>
      <point x="1727.0666666666666" y="1456.0" type="line"/>
      <point x="1727.0666666666666" y="153.73333333333332" type="line"/>
      <point x="1885.7333333333333" y="153.73333333333332" type="line"/>
      <point x="1885.7333333333333" y="-290.0" type="line"/>
      <point x="1713.7333333333333" y="-290.0" type="line"/>
      <point x="1713.7333333333333" y="0.0" type="line"/>
      <point x="170.0" y="0.0" type="line"/>
    </contour>
  </outline>
</glyph>
<glyph name="ghe" format="2">
  <advance width="742"/>
  <unicode hex="0433"/>
  <outline>
    <contour>
      <point x="148.0" y="1052.0" type="line"/>
      <point x="691.0666666666666" y="1052.0" type="line"/>
      <point x="691.0666666666666" y="907.0" type="line"/>
      <point x="325.46666666666664" y="907.0" type="line"/>
      <point x="325.46666666666664" y="0.0" type="line"/>
      <point x="148.0" y="0.0" type="line"/>
    </contour>
  </outline>
</glyph>
<glyph name="ze" format="2">
  <advance width="890"/>
  <unicode hex="0437"/>
  <outline>
    <contour>
      <point x="411.1333333333333" y="-30.0" type="curve" smooth="yes"/>
      <point x="184.45391460673983" y="-30.0"/>
      <point x="31.4" y="93.76266666666663"/>
      <point x="31.4" y="315.6666666666667" type="curve" smooth="yes"/>
      <point x="31.4" y="320.6666666666667" type="line"/>
      <point x="202.86666666666667" y="320.6666666666667" type="line"/>
      <point x="202.86666666666667" y="315.6666666666667" type="line" smooth="yes"/>
      <point x="202.86666666666667" y="189.97466666666668"/>
      <point x="268.3674536340835" y="118.8"/>
      <point x="412.1333333333333" y="118.8" type="curve" smooth="yes"/>
      <point x="544.0273764258548" y="118.8"/>
      <point x="609.2" y="196.70799999999997"/>
      <point x="609.2" y="309.0" type="curve" smooth="yes"/>
      <point x="609.2" y="409.94666666666666"/>
      <point x="551.3946666666667" y="465.1333333333333"/>
      <point x="396.1333333333333" y="465.1333333333333" type="curve" smooth="yes"/>
      <point x="269.8" y="465.1333333333333" type="line"/>
      <point x="269.8" y="610.2" type="line"/>
      <point x="403.4666666666667" y="610.2" type="line" smooth="yes"/>
      <point x="527.2295368421057" y="610.2"/>
      <point x="576.2" y="664.388"/>
      <point x="576.2" y="769.5333333333333" type="curve" smooth="yes"/>
      <point x="576.2" y="870.9266666666667"/>
      <point x="511.9813333333334" y="934.2666666666667"/>
      <point x="399.6" y="934.2666666666667" type="curve" smooth="yes"/>
      <point x="255.416" y="934.2666666666667"/>
      <point x="210.06666666666666" y="840.8533333333334"/>
      <point x="210.06666666666666" y="736.3333333333334" type="curve" smooth="yes"/>
      <point x="210.06666666666666" y="731.3333333333334" type="line"/>
      <point x="38.599999999999994" y="731.3333333333334" type="line"/>
      <point x="38.599999999999994" y="736.3333333333334" type="line" smooth="yes"/>
      <point x="38.599999999999994" y="942.9613333333333"/>
      <point x="173.49599999999998" y="1082.0"/>
      <point x="417.73333333333335" y="1082.0" type="curve" smooth="yes"/>
      <point x="637.1360000000001" y="1082.0"/>
      <point x="764.2" y="973.6053333333334"/>
      <point x="764.2" y="776.0" type="curve" smooth="yes"/>
      <point x="764.2" y="661.7426666666667"/>
      <point x="692.1058355581633" y="570.1339349318889"/>
      <point x="580.1333333333333" y="546.1333333333333" type="curve"/>
      <point x="580.1333333333333" y="543.1333333333333" type="line"/>
      <point x="730.5732953155887" y="520.2636105705311"/>
      <point x="796.2" y="437.72933333333333"/>
      <point x="796.2" y="309.0" type="curve" smooth="yes"/>
      <point x="796.2" y="103.5333333333333"/>
      <point x="651.1979482631164" y="-30.0"/>
    </contour>
  </outline>
</glyph>
<glyph name="el" format="2">
  <advance width="1009"/>
  <unicode hex="043B"/>
  <outline>
    <contour>
      <point x="358.5333333333333" y="907.0" type="line"/>
      <point x="343.73333333333335" y="389.73333333333335" type="line" smooth="yes"/>
      <point x="337.65866666666665" y="169.7053333333333"/>
      <point x="302.30400000000003" y="-17.733333333333334"/>
      <point x="107.2" y="-17.733333333333334" type="curve" smooth="yes"/>
      <point x="57.352" y="-17.733333333333334"/>
      <point x="34.03066666666667" y="-10.364"/>
      <point x="10.0" y="0.2666666666666666" type="curve"/>
      <point x="10.0" y="156.26666666666668" type="line"/>
      <point x="31.35066666666667" y="146.88666666666668"/>
      <point x="42.653333333333336" y="143.26666666666668"/>
      <point x="72.13333333333333" y="143.26666666666668" type="curve" smooth="yes"/>
      <point x="150.836" y="143.26666666666668"/>
      <point x="176.38499711759573" y="255.2563221392618"/>
      <point x="180.13333333333333" y="392.26666666666665" type="curve" smooth="yes"/>
      <point x="198.86666666666667" y="1052.0" type="line"/>
      <point x="860.7333333333333" y="1052.0" type="line"/>
      <point x="860.7333333333333" y="0.0" type="line"/>
      <point x="683.2666666666667" y="0.0" type="line"/>
      <point x="683.2666666666667" y="907.0" type="line"/>
    </contour>
  </outline>
</glyph>
<glyph name="ecyr" format="2">
  <advance width="888"/>
  <unicode hex="044D"/>
  <guideline x="889.0" y="493.0" angle="90.0" identifier="9ss4WcbEUf"/>
  <outline>
    <contour>
      <point x="802.7333333333333" y="510.0" type="line" smooth="yes"/>
      <point x="802.7333333333333" y="164.27999999999997"/>
      <point x="649.2292565157748" y="-30.0"/>
      <point x="391.8" y="-30.0" type="curve" smooth="yes"/>
      <point x="148.00098442367826" y="-30.0"/>
      <point x="32.733333333333334" y="125.20799999999997"/>
      <point x="32.733333333333334" y="315.6666666666667" type="curve" smooth="yes"/>
      <point x="32.733333333333334" y="320.6666666666667" type="line"/>
      <point x="204.2" y="320.6666666666667" type="line"/>
      <point x="204.2" y="315.6666666666667" type="line" smooth="yes"/>
      <point x="204.2" y="211.772"/>
      <point x="253.43894623656172" y="118.8"/>
      <point x="392.8666666666667" y="118.8" type="curve" smooth="yes"/>
      <point x="546.9787387387356" y="118.8"/>
      <point x="621.2666666666667" y="258.2813333333333"/>
      <point x="621.2666666666667" y="478.6666666666667" type="curve" smooth="yes"/>
      <point x="621.2666666666667" y="572.5333333333333" type="line" smooth="yes"/>
      <point x="621.2666666666667" y="793.9906666666666"/>
      <point x="549.3442374429251" y="934.2666666666667"/>
      <point x="402.2" y="934.2666666666667" type="curve" smooth="yes"/>
      <point x="258.4842795698951" y="934.2666666666667"/>
      <point x="212.46666666666667" y="841.9253333333334"/>
      <point x="212.46666666666667" y="736.3333333333334" type="curve" smooth="yes"/>
      <point x="212.46666666666667" y="731.3333333333334" type="line"/>
      <point x="41.0" y="731.3333333333334" type="line"/>
      <point x="41.0" y="736.3333333333334" type="line" smooth="yes"/>
      <point x="41.0" y="926.792"/>
      <point x="163.41431775701156" y="1082.0"/>
      <point x="400.06666666666666" y="1082.0" type="curve" smooth="yes"/>
      <point x="646.2396791147967" y="1082.0"/>
      <point x="802.7333333333333" y="887.72"/>
      <point x="802.7333333333333" y="542.0" type="curve" smooth="yes"/>
    </contour>
    <contour>
      <point x="706.6" y="610.0" type="line"/>
      <point x="706.6" y="465.0" type="line"/>
      <point x="273.73333333333335" y="465.0" type="line"/>
      <point x="273.73333333333335" y="610.0" type="line"/>
    </contour>
  </outline>
</glyph>
<glyph name="dje" format="2">
  <advance width="1003"/>
  <unicode hex="0452"/>
  <outline>
    <contour>
      <point x="278.4" y="1250.0" type="line"/>
      <point x="49.733333333333334" y="1250.0" type="line"/>
      <point x="60.733333333333334" y="1396.0" type="line"/>
      <point x="318.4" y="1396.0" type="line"/>
      <point x="550.0666666666666" y="1396.0" type="line"/>
      <point x="550.0666666666666" y="1250.0" type="line"/>
    </contour>
    <contour>
      <point x="864.5333333333333" y="-90.0" type="line" smooth="yes"/>
      <point x="864.5333333333333" y="-331.20000000000005"/>
      <point x="780.9493333333334" y="-436.0"/>
      <point x="621.4" y="-436.0" type="curve" smooth="yes"/>
      <point x="576.376" y="-436.0"/>
      <point x="512.212" y="-422.06"/>
      <point x="483.0" y="-410.0" type="curve"/>
      <point x="483.0" y="-265.3333333333333" type="line"/>
      <point x="506.9413333333333" y="-273.37333333333333"/>
      <point x="551.888" y="-285.3333333333333"/>
      <point x="587.8" y="-285.3333333333333" type="curve" smooth="yes"/>
      <point x="651.048" y="-285.3333333333333"/>
      <point x="687.0666666666666" y="-241.488"/>
      <point x="687.0666666666666" y="-130.0" type="curve" smooth="yes"/>
      <point x="687.0666666666666" y="729.0" type="line" smooth="yes"/>
      <point x="687.0666666666666" y="853.5306666666665"/>
      <point x="642.6426666666666" y="921.3333333333334"/>
      <point x="544.7333333333333" y="921.3333333333334" type="curve" smooth="yes"/>
      <point x="436.90799999999996" y="921.3333333333334"/>
      <point x="356.37600000000003" y="837.264"/>
      <point x="325.46666666666664" y="744.0" type="curve"/>
      <point x="325.46666666666664" y="0.0" type="line"/>
      <point x="148.0" y="0.0" type="line"/>
      <point x="148.0" y="1536.0" type="line"/>
      <point x="325.46666666666664" y="1536.0" type="line"/>
      <point x="325.46666666666664" y="913.4666666666667" type="line"/>
      <point x="377.63733333333334" y="1010.304"/>
      <point x="470.44533333333334" y="1072.0"/>
      <point x="604.2666666666667" y="1072.0" type="curve" smooth="yes"/>
      <point x="754.0786666666665" y="1072.0"/>
      <point x="864.5333333333333" y="959.624"/>
      <point x="864.5333333333333" y="727.0" type="curve" smooth="yes"/>
    </contour>
  </outline>
</glyph>
<glyph name="ieukran" format="2">
  <advance width="888"/>
  <unicode hex="0454"/>
  <guideline x="180.0" y="548.0" angle="90.0" identifier="n4jm0tBg3Y"/>
  <outline>
    <contour>
      <point x="85.0" y="510.0" type="curve" smooth="yes"/>
      <point x="85.0" y="542.0" type="line" smooth="yes"/>
      <point x="85.0" y="889.5066666666667"/>
      <point x="238.2546666666667" y="1082.0"/>
      <point x="495.26666666666665" y="1082.0" type="curve" smooth="yes"/>
      <point x="732.3573333333334" y="1082.0"/>
      <point x="855.0" y="926.792"/>
      <point x="855.0" y="736.3333333333334" type="curve" smooth="yes"/>
      <point x="855.0" y="731.3333333333334" type="line"/>
      <point x="683.5333333333333" y="731.3333333333334" type="line"/>
      <point x="683.5333333333333" y="736.3333333333334" type="line" smooth="yes"/>
      <point x="683.5333333333333" y="841.6573333333332"/>
      <point x="638.384" y="933.2"/>
      <point x="494.2" y="933.2" type="curve" smooth="yes"/>
      <point x="340.5466666666666" y="933.2"/>
      <point x="266.46666666666664" y="795.7773333333333"/>
      <point x="266.46666666666664" y="572.5333333333333" type="curve" smooth="yes"/>
      <point x="266.46666666666664" y="478.6666666666667" type="line" smooth="yes"/>
      <point x="266.46666666666664" y="256.49466666666666"/>
      <point x="338.0933333333333" y="117.73333333333333"/>
      <point x="484.6" y="117.73333333333333" type="curve" smooth="yes"/>
      <point x="631.6426666666667" y="117.73333333333333"/>
      <point x="683.5333333333333" y="210.34266666666664"/>
      <point x="683.5333333333333" y="315.6666666666667" type="curve" smooth="yes"/>
      <point x="683.5333333333333" y="320.6666666666667" type="line"/>
      <point x="855.0" y="320.6666666666667" type="line"/>
      <point x="855.0" y="315.6666666666667" type="line" smooth="yes"/>
      <point x="855.0" y="125.20799999999997"/>
      <point x="735.2586666666667" y="-30.0"/>
      <point x="486.73333333333335" y="-30.0" type="curve" smooth="yes"/>
      <point x="241.15600000000003" y="-30.0"/>
      <point x="85.0" y="162.49333333333328"/>
    </contour>
    <contour>
      <point x="181.0" y="610.0" type="line"/>
      <point x="614.0" y="610.0" type="line"/>
      <point x="614.0" y="465.0" type="line"/>
      <point x="181.0" y="465.0" type="line"/>
    </contour>
  </outline>
</glyph>
<glyph name="yi" format="2">
  <advance width="491"/>
  <unicode hex="0457"/>
  <outline>
    <contour>
      <point x="157.0" y="0.0" type="line"/>
      <point x="157.0" y="1052.0" type="line"/>
      <point x="334.46666666666664" y="1052.0" type="line"/>
      <point x="334.46666666666664" y="0.0" type="line"/>
    </contour>
    <contour>
      <point x="20.0" y="1372.1333333333334" type="curve" smooth="yes"/>
      <point x="20.0" y="1430.8253333333334"/>
      <point x="57.72666666666666" y="1475.6666666666667"/>
      <point x="126.06666666666666" y="1475.6666666666667" type="curve" smooth="yes"/>
      <point x="194.31733333333335" y="1475.6666666666667"/>
      <point x="232.06666666666666" y="1430.8253333333334"/>
      <point x="232.06666666666666" y="1372.1333333333334" type="curve" smooth="yes"/>
      <point x="232.06666666666666" y="1313.4413333333332"/>
      <point x="194.31733333333335" y="1268.6"/>
      <point x="126.06666666666666" y="1268.6" type="curve" smooth="yes"/>
      <point x="57.72666666666666" y="1268.6"/>
      <point x="20.0" y="1313.4413333333332"/>
    </contour>
    <contour>
      <point x="259.4" y="1372.1333333333334" type="curve" smooth="yes"/>
      <point x="259.4" y="1430.8253333333334"/>
      <point x="297.12666666666667" y="1475.6666666666667"/>
      <point x="365.46666666666664" y="1475.6666666666667" type="curve" smooth="yes"/>
      <point x="433.71733333333333" y="1475.6666666666667"/>
      <point x="471.46666666666664" y="1430.8253333333334"/>
      <point x="471.46666666666664" y="1372.1333333333334" type="curve" smooth="yes"/>
      <point x="471.46666666666664" y="1313.4413333333332"/>
      <point x="433.71733333333333" y="1268.6"/>
      <point x="365.46666666666664" y="1268.6" type="curve" smooth="yes"/>
      <point x="297.12666666666667" y="1268.6"/>
      <point x="259.4" y="1313.4413333333332"/>
    </contour>
  </outline>
</glyph>
<glyph name="Kabashkircyr" format="2">
  <advance width="1269"/>
  <unicode hex="04A0"/>
  <outline>
    <contour>
      <point x="1052.8666666666668" y="0.0" type="line"/>
      <point x="559.2666666666667" y="740.0" type="line"/>
      <point x="715.0" y="823.0" type="line"/>
      <point x="1267.5333333333333" y="0.0" type="line"/>
    </contour>
    <contour>
      <point x="400.06666666666666" y="830.0" type="line"/>
      <point x="604.4666666666667" y="830.0" type="line"/>
      <point x="1018.2666666666667" y="1456.0" type="line"/>
      <point x="1222.4666666666667" y="1456.0" type="line"/>
      <point x="697.4" y="672.0" type="line"/>
      <point x="400.06666666666666" y="672.0" type="line"/>
    </contour>
    <contour>
      <point x="308.3333333333333" y="0.0" type="line"/>
      <point x="308.3333333333333" y="1303.3333333333333" type="line"/>
      <point x="24.0" y="1303.3333333333333" type="line"/>
      <point x="24.0" y="1456.0" type="line"/>
      <point x="491.8" y="1456.0" type="line"/>
      <point x="491.8" y="0.0" type="line"/>
    </contour>
  </outline>
</glyph>
<glyph name="Endescender" format="2">
  <advance width="1300"/>
  <unicode hex="04A2"/>
  <outline>
    <contour>
      <point x="170.0" y="0.0" type="line"/>
      <point x="170.0" y="1456.0" type="line"/>
      <point x="353.46666666666664" y="1456.0" type="line"/>
      <point x="353.46666666666664" y="827.8666666666667" type="line"/>
      <point x="938.1333333333333" y="827.8666666666667" type="line"/>
      <point x="938.1333333333333" y="1456.0" type="line"/>
      <point x="1121.6" y="1456.0" type="line"/>
      <point x="1121.6" y="153.73333333333332" type="line"/>
      <point x="1280.2666666666667" y="153.73333333333332" type="line"/>
      <point x="1280.2666666666667" y="-290.0" type="line"/>
      <point x="1108.2666666666667" y="-290.0" type="line"/>
      <point x="1108.2666666666667" y="0.0" type="line"/>
      <point x="938.1333333333333" y="0.0" type="line"/>
      <point x="938.1333333333333" y="674.1333333333333" type="line"/>
      <point x="353.46666666666664" y="674.1333333333333" type="line"/>
      <point x="353.46666666666664" y="0.0" type="line"/>
    </contour>
  </outline>
</glyph>
<glyph name="Hastroke-cy" format="2">
  <advance width="1027"/>
  <unicode hex="04FE"/>
  <outline>
    <contour>
      <point x="149.13333333333333" y="824.0" type="line"/>
      <point x="877.6666666666666" y="824.0" type="line"/>
      <point x="877.6666666666666" y="658.0" type="line"/>
      <point x="149.13333333333333" y="658.0" type="line"/>
    </contour>
    <contour>
      <point x="25.0" y="0.0" type="line"/>
      <point x="451.93333333333334" y="803.8666666666667" type="line"/>
      <point x="473.8" y="803.8666666666667" type="line"/>
      <point x="790.4" y="1456.0" type="line"/>
      <point x="981.0666666666666" y="1456.0" type="line"/>
      <point x="573.8" y="672.1333333333333" type="line"/>
      <point x="554.0666666666666" y="672.1333333333333" type="line"/>
      <point x="215.66666666666666" y="0.0" type="line"/>
    </contour>
    <contour>
      <point x="45.733333333333334" y="1456.0" type="line"/>
      <point x="239.33333333333334" y="1456.0" type="line"/>
      <point x="557.0" y="803.8666666666667" type="line"/>
      <point x="574.8666666666667" y="803.8666666666667" type="line"/>
      <point x="1001.8" y="0.0" type="line"/>
      <point x="807.1333333333333" y="0.0" type="line"/>
      <point x="469.8" y="672.1333333333333" type="line"/>
      <point x="451.93333333333334" y="672.1333333333333" type="line"/>
    </contour>
  </outline>
</glyph>
<glyph name="franc" format="2">
  <advance width="998"/>
  <unicode hex="20A3"/>
  <outline>
    <contour>
      <point x="169.33333333333334" y="0.0" type="line"/>
      <point x="169.33333333333334" y="1456.0" type="line"/>
      <point x="938.0" y="1456.0" type="line"/>
      <point x="938.0" y="1303.3333333333333" type="line"/>
      <point x="352.8" y="1303.3333333333333" type="line"/>
      <point x="352.8" y="857.8" type="line"/>
      <point x="854.3333333333334" y="857.8" type="line"/>
      <point x="854.3333333333334" y="706.2" type="line"/>
      <point x="352.8" y="706.2" type="line"/>
      <point x="352.8" y="0.0" type="line"/>
    </contour>
    <contour>
      <point x="20.0" y="300.26666666666665" type="line"/>
      <point x="20.0" y="449.73333333333335" type="line"/>
      <point x="682.3333333333334" y="449.73333333333335" type="line"/>
      <point x="682.3333333333334" y="300.26666666666665" type="line"/>
    </contour>
  </outline>
</glyph>
<glyph name="dong" format="2">
  <advance width="1033"/>
  <unicode hex="20AB"/>
  <outline>
    <contour>
      <point x="89.66666666666667" y="469.3333333333333" type="curve" smooth="yes"/>
      <point x="89.66666666666667" y="502.6666666666667" type="line" smooth="yes"/>
      <point x="89.66666666666667" y="811.5813333333334"/>
      <point x="230.7813333333333" y="992.0"/>
      <point x="453.4" y="992.0" type="curve" smooth="yes"/>
      <point x="572.2133333333334" y="992.0"/>
      <point x="655.2173333333333" y="941.9053333333333"/>
      <point x="705.3333333333334" y="862.6666666666666" type="curve"/>
      <point x="705.3333333333334" y="1456.0" type="line"/>
      <point x="883.4666666666667" y="1456.0" type="line"/>
      <point x="883.4666666666667" y="0.0" type="line"/>
      <point x="720.1333333333333" y="0.0" type="line"/>
      <point x="713.2" y="121.0" type="line"/>
      <point x="709.3333333333334" y="121.0" type="line"/>
      <point x="665.7386666666666" y="41.04666666666667"/>
      <point x="572.6440000000001" y="-20.0"/>
      <point x="452.1333333333333" y="-20.0" type="curve" smooth="yes"/>
      <point x="231.21199999999996" y="-20.0"/>
      <point x="89.66666666666667" y="161.04399999999998"/>
    </contour>
    <contour>
      <point x="271.1333333333333" y="437.3333333333333" type="line" smooth="yes"/>
      <point x="271.1333333333333" y="220.96800000000002"/>
      <point x="340.7546666666667" y="127.73333333333333"/>
      <point x="497.26666666666665" y="127.73333333333333" type="curve" smooth="yes"/>
      <point x="598.928" y="127.73333333333333"/>
      <point x="672.3693333333333" y="202.60533333333336"/>
      <point x="705.3333333333334" y="286.4" type="curve"/>
      <point x="705.3333333333334" y="684.2666666666667" type="line"/>
      <point x="672.3693333333333" y="768.0613333333333"/>
      <point x="599.1546666666667" y="844.2666666666667"/>
      <point x="496.6" y="844.2666666666667" type="curve" smooth="yes"/>
      <point x="340.9813333333334" y="844.2666666666667"/>
      <point x="271.1333333333333" y="750.1386666666667"/>
      <point x="271.1333333333333" y="534.6666666666666" type="curve" smooth="yes"/>
    </contour>
    <contour>
      <point x="978.3333333333334" y="1160.2666666666667" type="line"/>
      <point x="347.6666666666667" y="1160.2666666666667" type="line"/>
      <point x="347.6666666666667" y="1297.7333333333333" type="line"/>
      <point x="978.3333333333334" y="1297.7333333333333" type="line"/>
    </contour>
    <contour>
      <point x="928.3333333333334" y="-261.73333333333335" type="line"/>
      <point x="89.66666666666666" y="-261.73333333333335" type="line"/>
      <point x="89.66666666666666" y="-132.26666666666668" type="line"/>
      <point x="928.3333333333334" y="-132.26666666666668" type="line"/>
    </contour>
  </outline>
</glyph>
<glyph name="Euro" format="2">
  <advance width="978"/>
  <unicode hex="20AC"/>
  <outline>
    <contour>
      <point x="718.6666666666666" y="982.7333333333333" type="line"/>
      <point x="721.6666666666666" y="831.2666666666667" type="line"/>
      <point x="22.0" y="831.2666666666667" type="line"/>
      <point x="22.0" y="982.7333333333333" type="line"/>
    </contour>
    <contour>
      <point x="721.6666666666666" y="656.7333333333333" type="line"/>
      <point x="721.6666666666666" y="506.26666666666665" type="line"/>
      <point x="22.0" y="506.26666666666665" type="line"/>
      <point x="22.0" y="656.7333333333333" type="line"/>
    </contour>
    <contour>
      <point x="160.33333333333334" y="544.0" type="curve" smooth="yes"/>
      <point x="160.33333333333334" y="903.0" type="line" smooth="yes"/>
      <point x="160.33333333333334" y="1272.9293333333333"/>
      <point x="317.6053333333333" y="1484.0"/>
      <point x="611.3333333333334" y="1484.0" type="curve" smooth="yes"/>
      <point x="731.308" y="1484.0"/>
      <point x="846.1026666666666" y="1433.0333333333335"/>
      <point x="932.6666666666666" y="1337.0" type="curve"/>
      <point x="815.6666666666666" y="1206.0" type="line"/>
      <point x="755.724" y="1271.3919999999998"/>
      <point x="687.5986666666666" y="1306.0"/>
      <point x="625.3333333333334" y="1306.0" type="curve" smooth="yes"/>
      <point x="438.2693333333333" y="1306.0"/>
      <point x="339.3333333333333" y="1160.7786666666668"/>
      <point x="339.3333333333333" y="906.0" type="curve" smooth="yes"/>
      <point x="339.3333333333333" y="541.0" type="line" smooth="yes"/>
      <point x="339.3333333333333" y="288.45466666666664"/>
      <point x="445.69066666666663" y="145.0"/>
      <point x="646.3333333333334" y="145.0" type="curve" smooth="yes"/>
      <point x="702.9706666666667" y="145.0"/>
      <point x="773.076" y="177.85866666666664"/>
      <point x="842.6666666666666" y="242.0" type="curve"/>
      <point x="945.6666666666666" y="126.0" type="line"/>
      <point x="862.9440000000001" y="24.338666666666654"/>
      <point x="744.2066666666667" y="-30.0"/>
      <point x="613.3333333333334" y="-30.0" type="curve" smooth="yes"/>
      <point x="317.2826666666666" y="-30.0"/>
      <point x="160.33333333333334" y="175.05333333333334"/>
    </contour>
  </outline>
</glyph>
<glyph name="uni20B5" format="2">
  <advance width="1024"/>
  <unicode hex="20B5"/>
  <guideline x="0" y="-125.0" angle="0" identifier="1Am3eQoiKr"/>
  <outline>
    <contour>
      <point x="455.93333333333334" y="-190.0" type="line"/>
      <point x="455.93333333333334" y="37.0" type="line"/>
      <point x="468.93333333333334" y="51.0" type="line"/>
      <point x="468.93333333333334" y="708.0" type="line"/>
      <point x="605.4" y="708.0" type="line"/>
      <point x="605.4" y="50.0" type="line"/>
      <point x="617.4" y="40.0" type="line"/>
      <point x="617.4" y="-190.0" type="line"/>
    </contour>
    <contour>
      <point x="468.93333333333334" y="708.0" type="line"/>
      <point x="468.93333333333334" y="1362.0" type="line"/>
      <point x="458.93333333333334" y="1372.0" type="line"/>
      <point x="458.93333333333334" y="1582.0" type="line"/>
      <point x="610.4" y="1582.0" type="line"/>
      <point x="610.4" y="1372.0" type="line"/>
      <point x="605.4" y="1359.0" type="line"/>
      <point x="605.4" y="708.0" type="line"/>
    </contour>
    <contour>
      <point x="778.3333333333334" y="436.0" type="curve" smooth="yes"/>
      <point x="778.3333333333334" y="460.0" type="line"/>
      <point x="967.3333333333334" y="458.0" type="line"/>
      <point x="966.3333333333334" y="436.0" type="line" smooth="yes"/>
      <point x="954.9879999999999" y="177.29066666666665"/>
      <point x="830.4266666666666" y="-25.0"/>
      <point x="543.6666666666666" y="-25.0" type="curve" smooth="yes"/>
      <point x="247.5266666666667" y="-25.0"/>
      <point x="102.0" y="160.5"/>
      <point x="102.0" y="462.0" type="curve" smooth="yes"/>
      <point x="102.0" y="1002.0" type="line" smooth="yes"/>
      <point x="102.0" y="1288.76"/>
      <point x="248.2066666666667" y="1485.0"/>
      <point x="541.6666666666666" y="1485.0" type="curve" smooth="yes"/>
      <point x="832.4466666666667" y="1485.0"/>
      <point x="954.2733333333334" y="1306.04"/>
      <point x="966.3333333333334" y="1030.0" type="curve" smooth="yes"/>
      <point x="967.3333333333334" y="1008.0" type="line"/>
      <point x="773.3333333333334" y="1006.0" type="line"/>
      <point x="773.3333333333334" y="1030.0" type="line" smooth="yes"/>
      <point x="773.6906666666666" y="1170.7"/>
      <point x="740.3066666666666" y="1329.0"/>
      <point x="544.6666666666666" y="1329.0" type="curve" smooth="yes"/>
      <point x="347.6866666666667" y="1329.0"/>
      <point x="296.0" y="1199.64"/>
      <point x="296.0" y="1004.0" type="curve" smooth="yes"/>
      <point x="296.0" y="464.0" type="line" smooth="yes"/>
      <point x="296.0" y="258.98"/>
      <point x="356.6666666666667" y="122.0"/>
      <point x="557.6666666666666" y="122.0" type="curve" smooth="yes"/>
      <point x="715.7866666666666" y="122.0"/>
      <point x="778.3333333333334" y="256.44"/>
    </contour>
  </outline>
</glyph>
<glyph name="ruble" format="2">
  <advance width="1024"/>
  <unicode hex="20BD"/>
  <outline>
    <contour>
      <point x="440.6666666666667" y="615.2666666666667" type="curve" smooth="yes"/>
      <point x="30.0" y="615.2666666666667" type="line"/>
      <point x="30.0" y="763.7333333333333" type="line"/>
      <point x="440.6666666666667" y="763.7333333333333" type="line" smooth="yes"/>
      <point x="659.0866666666666" y="763.7333333333333"/>
      <point x="756.6666666666666" y="872.2"/>
      <point x="756.6666666666666" y="1033.0" type="curve" smooth="yes"/>
      <point x="756.6666666666666" y="1173.7"/>
      <point x="667.1266666666667" y="1305.1253333333334"/>
      <point x="440.6666666666667" y="1302.2666666666667" type="curve" smooth="yes"/>
      <point x="362.73333333333335" y="1302.2666666666667" type="line"/>
      <point x="362.73333333333335" y="0.0" type="line"/>
      <point x="188.0" y="0.0" type="line"/>
      <point x="188.0" y="1456.0" type="line"/>
      <point x="440.6666666666667" y="1456.0" type="line" smooth="yes"/>
      <point x="770.3066666666666" y="1456.0"/>
      <point x="948.6666666666666" y="1278.88"/>
      <point x="948.6666666666666" y="1035.0" type="curve" smooth="yes"/>
      <point x="948.6666666666666" y="767.0"/>
      <point x="770.3066666666666" y="616.696"/>
    </contour>
    <contour>
      <point x="722.0" y="419.73333333333335" type="line"/>
      <point x="722.0" y="270.26666666666665" type="line"/>
      <point x="30.0" y="270.26666666666665" type="line"/>
      <point x="30.0" y="419.73333333333335" type="line"/>
    </contour>
  </outline>
</glyph>
<glyph name="approxequal" format="2">
  <advance width="1024"/>
  <unicode hex="2248"/>
  <outline>
    <contour>
      <point x="126.0" y="702.9333333333333" type="curve"/>
      <point x="126.0" y="896.7333333333333" type="line"/>
      <point x="177.54533333333333" y="963.644"/>
      <point x="255.59333333333333" y="1003.26"/>
      <point x="328.4" y="1004.6" type="curve" smooth="yes"/>
      <point x="415.67866666666663" y="1005.94"/>
      <point x="451.74" y="973.8439999999999"/>
      <point x="521.8666666666667" y="933.7333333333333" type="curve" smooth="yes"/>
      <point x="588.0626666666667" y="893.5333333333333"/>
      <point x="620.5253333333334" y="864.8"/>
      <point x="702.5333333333333" y="864.8" type="curve" smooth="yes"/>
      <point x="775.34" y="864.8"/>
      <point x="847.4546666666666" y="911.696"/>
      <point x="899.0" y="990.6666666666666" type="curve"/>
      <point x="899.0" y="796.8666666666667" type="line"/>
      <point x="847.4546666666666" y="728.5266666666666"/>
      <point x="776.34" y="688.9333333333333"/>
      <point x="703.5333333333333" y="688.9333333333333" type="curve" smooth="yes"/>
      <point x="621.5253333333334" y="688.9333333333333"/>
      <point x="587.6333333333334" y="718.0959999999999"/>
      <point x="522.8666666666667" y="756.8666666666667" type="curve" smooth="yes"/>
      <point x="452.74" y="798.4066666666666"/>
      <point x="415.67866666666663" y="828.8"/>
      <point x="328.4" y="828.8" type="curve" smooth="yes"/>
      <point x="255.59333333333333" y="828.8"/>
      <point x="177.54533333333333" y="781.904"/>
    </contour>
    <contour>
      <point x="125.0" y="292.3333333333333" type="curve"/>
      <point x="125.0" y="486.1333333333333" type="line"/>
      <point x="176.54533333333333" y="554.4733333333334"/>
      <point x="254.59333333333333" y="592.7266666666667"/>
      <point x="327.4" y="594.0666666666667" type="curve" smooth="yes"/>
      <point x="414.67866666666663" y="595.4066666666668"/>
      <point x="450.74" y="562.244"/>
      <point x="520.8666666666667" y="522.1333333333333" type="curve" smooth="yes"/>
      <point x="587.0626666666667" y="481.93333333333334"/>
      <point x="619.5253333333334" y="454.2"/>
      <point x="701.5333333333333" y="454.2" type="curve" smooth="yes"/>
      <point x="774.34" y="454.2"/>
      <point x="846.4546666666666" y="501.09599999999995"/>
      <point x="898.0" y="580.0666666666667" type="curve"/>
      <point x="898.0" y="385.26666666666665" type="line"/>
      <point x="846.4546666666666" y="318.356"/>
      <point x="775.34" y="278.4"/>
      <point x="702.5333333333333" y="278.4" type="curve" smooth="yes"/>
      <point x="620.5253333333334" y="278.4"/>
      <point x="588.0626666666667" y="306.1333333333333"/>
      <point x="521.8666666666667" y="346.3333333333333" type="curve" smooth="yes"/>
      <point x="451.74" y="386.44399999999996"/>
      <point x="414.67866666666663" y="417.2"/>
      <point x="327.4" y="417.2" type="curve" smooth="yes"/>
      <point x="254.59333333333333" y="417.2"/>
      <point x="176.54533333333333" y="371.304"/>
    </contour>
  </outline>
</glyph>
<glyph name="breve.cyr" format="2">
  <advance width="1030"/>
  <outline>
    <contour>
      <point x="515.0" y="1351.0" type="curve" smooth="yes"/>
      <point x="608.264" y="1351.0"/>
      <point x="658.44" y="1395.4893333333332"/>
      <point x="704.0" y="1516.0" type="curve"/>
      <point x="853.0" y="1427.0" type="line"/>
      <point x="784.66" y="1267.6293333333333"/>
      <point x="665.9733333333334" y="1198.0"/>
      <point x="515.0" y="1198.0" type="curve" smooth="yes"/>
      <point x="362.6866666666666" y="1198.0"/>
      <point x="245.34" y="1267.6293333333333"/>
      <point x="177.0" y="1427.0" type="curve"/>
      <point x="326.0" y="1516.0" type="line"/>
      <point x="371.56" y="1395.4893333333332"/>
      <point x="421.736" y="1351.0"/>
    </contour>
  </outline>
</glyph>
<glyph name="brevecomb.case" format="2">
  <advance width="1024"/>
  <outline>
    <contour>
      <point x="803.0" y="1976.0" type="curve"/>
      <point x="896.0" y="1906.0" type="line"/>
      <point x="843.74" y="1773.34"/>
      <point x="704.96" y="1640.0"/>
      <point x="512.0" y="1640.0" type="curve" smooth="yes"/>
      <point x="340.48" y="1640.0"/>
      <point x="193.32" y="1754.24"/>
      <point x="129.0" y="1907.0" type="curve"/>
      <point x="229.0" y="1976.0" type="line"/>
      <point x="286.62" y="1891.58"/>
      <point x="384.7" y="1809.0"/>
      <point x="512.0" y="1809.0" type="curve" smooth="yes"/>
      <point x="648.6800000000001" y="1809.0"/>
      <point x="745.38" y="1884.88"/>
    </contour>
  </outline>
</glyph>
<glyph name="hard.bgr" format="2">
  <advance width="1094"/>
  <outline>
    <contour>
      <point x="256.0" y="351.0" type="curve" smooth="yes"/>
      <point x="256.0" y="907.0" type="line"/>
      <point x="30.0" y="907.0" type="line"/>
      <point x="30.0" y="1052.0" type="line"/>
      <point x="433.4666666666667" y="1052.0" type="line"/>
      <point x="433.4666666666667" y="718.0" type="line"/>
      <point x="614.8" y="718.0" type="line" smooth="yes"/>
      <point x="898.2546666666667" y="718.0"/>
      <point x="1022.9333333333334" y="575.9413333333333"/>
      <point x="1022.9333333333334" y="351.0" type="curve" smooth="yes"/>
      <point x="1022.9333333333334" y="117.83999999999997"/>
      <point x="885.724" y="-30.0"/>
      <point x="637.4666666666667" y="-30.0" type="curve" smooth="yes"/>
      <point x="391.8893333333333" y="-30.0"/>
      <point x="256.0" y="117.83999999999997"/>
    </contour>
    <contour>
      <point x="433.4666666666667" y="351.0" type="line" smooth="yes"/>
      <point x="433.4666666666667" y="218.34"/>
      <point x="485.59999999999997" y="123.0"/>
      <point x="637.4666666666667" y="123.0" type="curve" smooth="yes"/>
      <point x="792.0133333333333" y="123.0"/>
      <point x="845.4666666666667" y="218.34"/>
      <point x="845.4666666666667" y="351.0" type="curve" smooth="yes"/>
      <point x="845.4666666666667" y="495.320087227416"/>
      <point x="783.1933333333334" y="573.0"/>
      <point x="614.8" y="573.0" type="curve" smooth="yes"/>
      <point x="433.4666666666667" y="573.0" type="line"/>
    </contour>
  </outline>
</glyph>
<glyph name="one.prop" format="2">
  <advance width="652"/>
  <outline>
    <contour>
      <point x="318.3333333333333" y="0.0" type="line"/>
      <point x="318.3333333333333" y="1238.6" type="line"/>
      <point x="25.0" y="1114.5333333333333" type="line"/>
      <point x="25.0" y="1294.1333333333334" type="line"/>
      <point x="476.06666666666666" y="1476.0" type="line"/>
      <point x="501.8" y="1476.0" type="line"/>
      <point x="501.8" y="0.0" type="line"/>
    </contour>
  </outline>
</glyph>
<glyph name="sha.bgr" format="2">
  <advance width="1502"/>
  <outline>
    <contour>
      <point x="1353.6" y="1052.0" type="line"/>
      <point x="1353.6" y="0.0" type="line"/>
      <point x="1190.9333333333334" y="0.0" type="line"/>
      <point x="1184.0" y="119.0" type="line"/>
      <point x="1180.1333333333332" y="119.0" type="line"/>
      <point x="1119.3866666666665" y="31.006666666666675"/>
      <point x="1034.252" y="-20.0"/>
      <point x="930.0" y="-20.0" type="curve" smooth="yes"/>
      <point x="812.2586666666666" y="-20.0"/>
      <point x="729.7653333333333" y="34.215999999999994"/>
      <point x="687.6" y="151.6" type="curve"/>
      <point x="683.7333333333333" y="151.6" type="line"/>
      <point x="623.8799999999999" y="42.792"/>
      <point x="534.9493333333334" y="-20.0"/>
      <point x="415.6" y="-20.0" type="curve" smooth="yes"/>
      <point x="241.57866666666666" y="-20.0"/>
      <point x="138.0" y="110.14666666666665"/>
      <point x="138.0" y="272.73333333333335" type="curve" smooth="yes"/>
      <point x="138.0" y="1052.0" type="line"/>
      <point x="316.53333333333336" y="1052.0" type="line"/>
      <point x="316.53333333333336" y="303.8" type="line" smooth="yes"/>
      <point x="316.53333333333336" y="182.128"/>
      <point x="373.6573333333333" y="130.66666666666666"/>
      <point x="464.8666666666667" y="130.66666666666666" type="curve" smooth="yes"/>
      <point x="564.384" y="130.66666666666666"/>
      <point x="633.3040000000001" y="197.79733333333334"/>
      <point x="657.0666666666666" y="265.3333333333333" type="curve"/>
      <point x="657.0666666666666" y="1052.0" type="line"/>
      <point x="835.6" y="1052.0" type="line"/>
      <point x="835.6" y="301.6666666666667" type="line" smooth="yes"/>
      <point x="835.6" y="182.85333333333332"/>
      <point x="902.7506666666667" y="130.66666666666666"/>
      <point x="979.6666666666666" y="130.66666666666666" type="curve" smooth="yes"/>
      <point x="1064.8906666666667" y="130.66666666666666"/>
      <point x="1146.6533333333332" y="197.79733333333334"/>
      <point x="1176.1333333333332" y="265.3333333333333" type="curve"/>
      <point x="1176.1333333333332" y="1052.0" type="line"/>
    </contour>
  </outline>
</glyph>
<glyph name="six.prop" format="2">
  <advance width="1021"/>
  <outline>
    <contour>
      <point x="97.06666666666666" y="614.0" type="curve" smooth="yes"/>
      <point x="97.06666666666666" y="644.0" type="line" smooth="yes"/>
      <point x="97.06666666666666" y="1153.2"/>
      <point x="337.94666666666666" y="1486.0"/>
      <point x="768.5333333333333" y="1486.0" type="curve" smooth="yes"/>
      <point x="785.3333333333334" y="1486.0" type="line"/>
      <point x="785.3333333333334" y="1333.3333333333333" type="line"/>
      <point x="768.5333333333333" y="1333.3333333333333" type="line" smooth="yes"/>
      <point x="463.3706666666666" y="1333.3333333333333"/>
      <point x="276.53333333333336" y="1123.0"/>
      <point x="276.53333333333336" y="654.0" type="curve" smooth="yes"/>
      <point x="276.53333333333336" y="604.0" type="line" smooth="yes"/>
      <point x="276.53333333333336" y="251.312"/>
      <point x="384.688" y="122.66666666666667"/>
      <point x="532.2666666666667" y="122.66666666666667" type="curve" smooth="yes"/>
      <point x="678.416" y="122.66666666666667"/>
      <point x="762.2666666666667" y="246.74133333333333"/>
      <point x="762.2666666666667" y="464.0" type="curve" smooth="yes"/>
      <point x="762.2666666666667" y="679.8293333333334"/>
      <point x="678.416" y="801.2"/>
      <point x="532.2666666666667" y="801.2" type="curve" smooth="yes"/>
      <point x="393.8" y="801.2"/>
      <point x="270.53333333333336" y="678.4"/>
      <point x="270.53333333333336" y="464.0" type="curve"/>
      <point x="203.73333333333332" y="464.0" type="line"/>
      <point x="203.73333333333332" y="757.3706666666667"/>
      <point x="346.82666666666665" y="953.8666666666667"/>
      <point x="564.8" y="953.8666666666667" type="curve" smooth="yes"/>
      <point x="792.7786666666668" y="953.8666666666667"/>
      <point x="943.7333333333333" y="757.3706666666667"/>
      <point x="943.7333333333333" y="464.0" type="curve" smooth="yes"/>
      <point x="943.7333333333333" y="169.2"/>
      <point x="770.7866666666666" y="-30.0"/>
      <point x="532.2666666666667" y="-30.0" type="curve" smooth="yes"/>
      <point x="293.74666666666667" y="-30.0"/>
      <point x="97.06666666666666" y="158.39999999999998"/>
    </contour>
  </outline>
</glyph>
<glyph name="soft.bgr" format="2">
  <advance width="986"/>
  <outline>
    <contour>
      <point x="148.0" y="351.0" type="curve" smooth="yes"/>
      <point x="148.0" y="1052.0" type="line"/>
      <point x="325.46666666666664" y="1052.0" type="line"/>
      <point x="325.46666666666664" y="718.0" type="line"/>
      <point x="506.8" y="718.0" type="line" smooth="yes"/>
      <point x="789.6461386138005" y="718.0"/>
      <point x="914.9333333333334" y="575.9413333333333"/>
      <point x="914.9333333333334" y="351.0" type="curve" smooth="yes"/>
      <point x="914.9333333333334" y="117.83999999999997"/>
      <point x="778.3083888889366" y="-30.0"/>
      <point x="529.4666666666667" y="-30.0" type="curve" smooth="yes"/>
      <point x="283.30631578953387" y="-30.0"/>
      <point x="148.0" y="117.83999999999997"/>
    </contour>
    <contour>
      <point x="325.46666666666664" y="351.0" type="line" smooth="yes"/>
      <point x="325.46666666666664" y="218.34"/>
      <point x="377.9254917492075" y="123.0"/>
      <point x="529.4666666666667" y="123.0" type="curve" smooth="yes"/>
      <point x="683.680284789698" y="123.0"/>
      <point x="737.4666666666667" y="218.34"/>
      <point x="737.4666666666667" y="351.0" type="curve" smooth="yes"/>
      <point x="737.4666666666667" y="495.320087227416"/>
      <point x="674.7948908555243" y="573.0"/>
      <point x="506.8" y="573.0" type="curve" smooth="yes"/>
      <point x="325.46666666666664" y="573.0" type="line"/>
    </contour>
  </outline>
</glyph>
<glyph name="yu.bgr" format="2">
  <advance width="1401"/>
  <outline>
    <contour>
      <point x="488.6666666666667" y="510.0" type="curve" smooth="yes"/>
      <point x="488.6666666666667" y="542.0" type="line" smooth="yes"/>
      <point x="488.6666666666667" y="889.5066666666667"/>
      <point x="648.9626666666667" y="1082.0"/>
      <point x="902.1333333333333" y="1082.0" type="curve" smooth="yes"/>
      <point x="1155.3039999999999" y="1082.0"/>
      <point x="1316.6666666666667" y="889.5066666666667"/>
      <point x="1316.6666666666667" y="542.0" type="curve" smooth="yes"/>
      <point x="1316.6666666666667" y="510.0" type="line" smooth="yes"/>
      <point x="1316.6666666666667" y="162.49333333333328"/>
      <point x="1155.3039999999999" y="-30.0"/>
      <point x="902.1333333333333" y="-30.0" type="curve" smooth="yes"/>
      <point x="648.9626666666667" y="-30.0"/>
      <point x="488.6666666666667" y="162.49333333333328"/>
    </contour>
    <contour>
      <point x="670.1333333333333" y="574.0" type="curve" smooth="yes"/>
      <point x="670.1333333333333" y="478.0" type="line" smooth="yes"/>
      <point x="670.1333333333333" y="256.7213333333333"/>
      <point x="746.6933333333334" y="117.73333333333333"/>
      <point x="902.1333333333333" y="117.73333333333333" type="curve" smooth="yes"/>
      <point x="1057.5733333333333" y="117.73333333333333"/>
      <point x="1135.2" y="256.7213333333333"/>
      <point x="1135.2" y="478.0" type="curve" smooth="yes"/>
      <point x="1135.2" y="574.0" type="line" smooth="yes"/>
      <point x="1135.2" y="802.4253333333334"/>
      <point x="1064.72" y="934.2666666666667"/>
      <point x="902.1333333333333" y="934.2666666666667" type="curve" smooth="yes"/>
      <point x="739.5466666666666" y="934.2666666666667"/>
      <point x="670.1333333333333" y="795.2786666666667"/>
    </contour>
    <contour>
      <point x="156.0" y="1536.0" type="line"/>
      <point x="333.46666666666664" y="1536.0" type="line"/>
      <point x="333.46666666666664" y="610.0" type="line"/>
      <point x="579.0666666666666" y="610.0" type="line"/>
      <point x="579.0666666666666" y="465.0" type="line"/>
      <point x="333.46666666666664" y="465.0" type="line"/>
      <point x="333.46666666666664" y="0.0" type="line"/>
      <point x="156.0" y="0.0" type="line"/>
    </contour>
  </outline>
</glyph>
